<svg id="グループ_1587" data-name="グループ 1587" xmlns="http://www.w3.org/2000/svg" xmlns:xlink="http://www.w3.org/1999/xlink" width="123.415" height="158.453" viewBox="0 0 123.415 158.453">
  <defs>
    <clipPath id="clip-path">
      <rect id="長方形_1354" data-name="長方形 1354" width="123.415" height="158.453" fill="none"/>
    </clipPath>
  </defs>
  <g id="グループ_1586" data-name="グループ 1586" clip-path="url(#clip-path)">
    <path id="パス_9578" data-name="パス 9578" d="M56.089,55.8C40.039,43.76,38.531,24.029,42.282,14.965c7.081-18.41,35.995-21.833,44.3,1.109C96.965-13.5,149.6-1.557,131.834,46.6c-4.818,14.036-21.93,30.086-45.651,40.471,15.932-12.253,35.758-26.2,39.986-49.17,4.407-26.077-24.463-40.049-39.986-7.949,0,0-6.163-23.358-27.675-17.655-13.532,3.777-15.676,24.985-2.418,43.5" transform="translate(-25.137 0)" fill="#0ba4e1"/>
    <path id="パス_9579" data-name="パス 9579" d="M210.89,64.944c-.539,7.012-12.293,15.2-12.293,15.2s-11.882-8.353-12.293-15.2c-.8-6.69,8-11.494,12.293-2.651,4.658-8.734,13.065-4.094,12.293,2.651" transform="translate(-115.398 -35.611)" fill="#cf5960"/>
    <path id="パス_9580" data-name="パス 9580" d="M202.476,142.723a5.665,5.665,0,1,1-5.666-5.666,5.666,5.666,0,0,1,5.666,5.666" transform="translate(-118.429 -84.917)" fill="#cf5960"/>
    <path id="パス_9581" data-name="パス 9581" d="M176.273,172.926a4.4,4.4,0,1,1-4.4-4.4,4.4,4.4,0,0,1,4.4,4.4" transform="translate(-103.762 -104.414)" fill="#0ba4e1"/>
    <path id="パス_9582" data-name="パス 9582" d="M51.513,261.941a.574.574,0,0,1-.563-.623.564.564,0,0,1,.563-.622h6.208a.58.58,0,0,1,.583.622.591.591,0,0,1-.583.623Zm1.668,13.521c-1.105,0-1.567-.482-1.567-1.567v-3.536c0-1.065.462-1.547,1.567-1.547h3.174c1.1,0,1.567.482,1.567,1.547V273.9c0,1.085-.462,1.567-1.567,1.567Zm-.924-10.849a.6.6,0,0,1,0-1.205h4.982a.6.6,0,0,1,0,1.205Zm0,2.672a.6.6,0,0,1,0-1.206h4.982a.6.6,0,0,1,0,1.206Zm.06-8.016a.574.574,0,0,1-.563-.623.564.564,0,0,1,.563-.623h4.862a.58.58,0,0,1,.582.623.591.591,0,0,1-.582.623Zm4.339,11.11a.354.354,0,0,0-.382-.362H53.241a.337.337,0,0,0-.362.362v3.5a.343.343,0,0,0,.362.382h3.034a.358.358,0,0,0,.382-.382Zm5.485-4.761c-.141,3.918-.683,7.494-2.792,10.045a.857.857,0,0,1-.643.362.659.659,0,0,1-.623-.7.614.614,0,0,1,.14-.4c2.451-3.174,2.612-7.252,2.612-11.753v-2.19H59.328a.633.633,0,0,1,0-1.266h3.757v-1.648a.66.66,0,0,1,.7-.643.649.649,0,0,1,.7.643v1.648h4.48a.633.633,0,0,1,0,1.266H62.181v3.375h3.978c1.969,0,2.712.944,2.712,2.511,0,6.61-.181,8.94-3.355,8.94a13.314,13.314,0,0,1-2.551-.3.61.61,0,0,1-.362-.643c0-.4.2-.824.6-.824a.616.616,0,0,1,.181.02,8.781,8.781,0,0,0,2.069.362c1.989,0,2.069-1.888,2.069-7.393,0-.743-.3-1.406-1.205-1.406Z" transform="translate(-31.567 -159.492)" fill="#0ba4e1"/>
    <path id="パス_9583" data-name="パス 9583" d="M108.306,260.3a1.465,1.465,0,0,1,1.547-1.346h4.641a1.493,1.493,0,0,1,1.547,1.346v4.3a1.439,1.439,0,0,1-1.547,1.346h-4.882v10.427a.655.655,0,0,1-1.306,0Zm6.509.4a.494.494,0,0,0-.562-.542h-4.079c-.382,0-.562.181-.562.542v1.125h5.2Zm0,2.25h-5.2v1.788h4.641a.494.494,0,0,0,.562-.542Zm-.462,11.532c-1.547,0-2.17-.582-2.17-2.17v-2.451c0-1.587.623-2.17,2.17-2.17h5.4c1.547,0,2.17.583,2.17,2.17v2.451c0,1.587-.623,2.17-2.17,2.17Zm6.248-4.621c0-.663-.281-.944-.924-.944h-5.244c-.643,0-.924.281-.924.944v2.451c0,.663.281.944.924.944h5.244c.643,0,.924-.281.924-.944Zm4.038-3.918h-5.023a1.48,1.48,0,0,1-1.547-1.346v-4.3a1.4,1.4,0,0,1,1.547-1.346h4.8a1.582,1.582,0,0,1,1.527,1.346v14.284c0,1.667-.322,2.331-2.009,2.331a16.57,16.57,0,0,1-2.29-.221.707.707,0,0,1-.6-.744c0-.361.181-.683.5-.683.04,0,.08.02.121.02a13.255,13.255,0,0,0,1.969.261c.864,0,1-.361,1-1.206Zm0-5.244c0-.362-.161-.542-.583-.542H119.9c-.382,0-.583.181-.583.542v1.125h5.324Zm0,2.25h-5.324V264.2c0,.362.2.542.583.542h4.741Z" transform="translate(-67.104 -160.441)" fill="#0ba4e1"/>
    <path id="パス_9584" data-name="パス 9584" d="M181.624,263.476c0,.422-.281.884-.7.884-.462,0-4.46-1.949-8.217-5.3a.547.547,0,0,0-.342-.12.536.536,0,0,0-.361.14,21.124,21.124,0,0,1-8.036,5.163,1.23,1.23,0,0,1-.221.06.815.815,0,0,1-.723-.884.634.634,0,0,1,.421-.643,19.009,19.009,0,0,0,7.695-4.922,1.6,1.6,0,0,1,1.126-.482,1.779,1.779,0,0,1,1.245.5,23.167,23.167,0,0,0,7.715,4.962.671.671,0,0,1,.4.643m-13.079,1.748c0,4.521-.161,7.433-3.6,10.568a.726.726,0,0,1-.522.241.837.837,0,0,1-.8-.824.56.56,0,0,1,.241-.462c3.175-2.773,3.255-5.465,3.255-10.186v-.724a.65.65,0,0,1,.723-.623.644.644,0,0,1,.7.623Zm7.474-1.366a.72.72,0,0,1,1.427,0v11.552a.72.72,0,0,1-1.427,0Z" transform="translate(-101.004 -159.459)" fill="#0ba4e1"/>
    <path id="パス_9585" data-name="パス 9585" d="M219.459,261.868a.6.6,0,0,1,0-1.205h5.384a.6.6,0,0,1,0,1.205Zm1.667,13.561c-1.105,0-1.567-.482-1.567-1.567v-3.5c0-1.065.462-1.547,1.567-1.547h2.15a1.349,1.349,0,0,1,1.547,1.547v3.5c0,1.085-.462,1.567-1.547,1.567ZM220.2,264.54a.565.565,0,0,1-.563-.583.553.553,0,0,1,.563-.582h3.937a.542.542,0,0,1,.563.582.552.552,0,0,1-.563.583Zm0,2.672a.565.565,0,0,1-.563-.583.553.553,0,0,1,.563-.582h3.937a.542.542,0,0,1,.563.582.552.552,0,0,1-.563.583Zm.06-8.016a.6.6,0,0,1,0-1.205h3.817a.6.6,0,0,1,0,1.205Zm3.315,11.191a.348.348,0,0,0-.362-.362h-2.049a.337.337,0,0,0-.361.362v3.455a.343.343,0,0,0,.361.382h2.049a.354.354,0,0,0,.362-.382Zm4.8-1.145c-1.547,0-2.19-.623-2.19-2.19V264.2a5.659,5.659,0,0,1-.4.643.49.49,0,0,1-.4.221.643.643,0,0,1-.643-.623A.669.669,0,0,1,224.9,264a11.231,11.231,0,0,0,2.029-3.315.521.521,0,0,1,.482-.342.639.639,0,0,1,.643.6.694.694,0,0,1-.06.261c-.121.261-.221.341-.341.582h3.476a7.088,7.088,0,0,0,.582-1.306.555.555,0,0,1,.542-.321.547.547,0,0,1,.6.5c0,.1-.02.241-.442,1.125h4.1a.477.477,0,1,1,0,.944H232.3v1.105h3.757c.362,0,.542.221.542.442a.479.479,0,0,1-.542.462H232.3v1.125h3.757c.362,0,.542.221.542.442a.479.479,0,0,1-.542.462H232.3v1.446h4.339a.513.513,0,1,1,0,1.025Zm6.268-9.523v.683a.6.6,0,0,1-1.205,0v-.683h-3.878v.683a.613.613,0,0,1-1.225,0v-.683h-2.873a.518.518,0,0,1-.5-.542.507.507,0,0,1,.5-.543h2.873v-.743c0-.362.3-.522.623-.522a.539.539,0,0,1,.6.522v.743h3.878v-.743a.609.609,0,0,1,1.205,0v.743h2.411a.5.5,0,0,1,.5.543.505.505,0,0,1-.5.542Zm2.09,16.294a24.957,24.957,0,0,1-5.163-1.246,23.684,23.684,0,0,1-5.906,1.246h-.06a.626.626,0,0,1-.643-.663.568.568,0,0,1,.582-.623,23.465,23.465,0,0,0,4.862-.562c-3.395-1.587-3.455-1.969-3.455-2.13a.622.622,0,0,1,.643-.562.763.763,0,0,1,.442.141,15.47,15.47,0,0,0,3.556,2.009,15.467,15.467,0,0,0,3.576-2.049.4.4,0,0,0,.14-.221c0-.06-.08-.121-.241-.121h-8.96a.523.523,0,0,1,0-1.045h9.4a1.122,1.122,0,0,1,1.045,1.125,1.02,1.02,0,0,1-.382.8,14.681,14.681,0,0,1-3.4,2.009,22.7,22.7,0,0,0,4.139.522.606.606,0,0,1,.643.623.719.719,0,0,1-.7.743Zm-5.545-13.28h-3.837v1.1h3.837Zm0,2.009h-3.837v1.125h3.837Zm0,2.029h-3.837v.522c0,.663.281.924.924.924h2.913Z" transform="translate(-135.623 -159.459)" fill="#0ba4e1"/>
    <path id="パス_9586" data-name="パス 9586" d="M22.475,356.265v-3.782c7.216,0,11.172-2.956,11.172-8.825,0-4.564-1.782-7.608-6-9.129C21.866,349.7,15.606,355.265,9.129,355.265,2.608,355.265,0,350.179,0,344.571c0-6.217,4.478-11.868,12.563-13.911V325.4H1.435v-3.608H12.563V319.27h3.782v2.521H36.3V325.4H16.346v4.608c.913-.087,1.912-.174,2.956-.174,13.085,0,18.345,5.13,18.345,13.824,0,8.521-5.564,12.607-15.172,12.607m-3.347-22.954a22.9,22.9,0,0,0-3.086.218v13.65H12.563V334.224C7.086,335.876,3.869,339.7,3.869,344.4c0,3.043,1.13,7.13,5.652,7.13,5.216,0,9.824-5.869,14.693-17.867a35.077,35.077,0,0,0-5.086-.348" transform="translate(0 -197.812)" fill="#0ba4e1"/>
    <path id="パス_9587" data-name="パス 9587" d="M127.912,357.181h-9.781v-3.913h9.651c13.737,0,17.65-4.347,17.65-10.129,0-5.13-3.3-7.869-10.216-7.869a22.863,22.863,0,0,0-13.694,4.173l-8.738,5.956v-4.477l24.258-15.955H114.61V321.1h29.865v3.217l-13.259,8.347a25.864,25.864,0,0,1,5.738-.7c8.216,0,12.868,4.39,12.868,11.129,0,8.216-5.869,14.085-21.91,14.085" transform="translate(-69.878 -198.945)" fill="#0ba4e1"/>
    <path id="パス_9588" data-name="パス 9588" d="M229.284,356.146A126.408,126.408,0,0,1,228.2,339.5c0-6.651.435-12.737,1.044-19.867h4a173.214,173.214,0,0,0-1,20.258,111.718,111.718,0,0,0,1.131,16.259Zm30.778-10.521v.087c0,6.955-3.869,10.52-11.824,10.52-7,0-10.825-3.261-10.825-8.651,0-5.13,4.043-8.564,10.868-8.564a33.382,33.382,0,0,1,7.955,1.087V327.8H237.761v-3.869h18.476V319.5h3.826v4.434h4.26V327.8h-4.26v13.52a33.844,33.844,0,0,1,4.739,2.087v4.956a35.768,35.768,0,0,0-4.739-2.739m-3.826-1.565a26.785,26.785,0,0,0-8.173-1.391c-4.043,0-6.782,1.565-6.782,5,0,3.3,2.826,4.738,6.651,4.738,5.608,0,8.3-2.13,8.3-7.433Z" transform="translate(-141.386 -197.954)" fill="#0ba4e1"/>
  </g>
</svg>
