<svg id="_レイヤー_2" data-name="レイヤー 2" xmlns="http://www.w3.org/2000/svg" viewBox="0 0 1397.29 963.65"><defs><clipPath id="clippath"><path class="cls-1" d="M0 0h1397.29v963.65H0z"/></clipPath><clipPath id="clippath-1"><path class="cls-1" d="M587.27 379.99h810.02v583.67H587.27z"/></clipPath><clipPath id="clippath-2"><path class="cls-1" d="M-2.62 184.93h590.54v565.32H-2.62z"/></clipPath><clipPath id="clippath-3"><path class="cls-1" d="M825.91-.61h571.38v380.05H825.91z"/></clipPath><clipPath id="clippath-4"><path class="cls-1" d="M825.91-.61h571.38v380.05H825.91z"/></clipPath><clipPath id="clippath-5"><path class="cls-1" d="M825.91-.61h571.38v380.05H825.91z"/></clipPath><clipPath id="clippath-6"><path class="cls-1" d="M825.91-.61h571.38v380.05H825.91z"/></clipPath><clipPath id="clippath-7"><path class="cls-1" d="M825.91-.61h571.38v380.05H825.91z"/></clipPath><clipPath id="clippath-8"><path class="cls-1" d="M825.91-.61h571.38v380.05H825.91z"/></clipPath><clipPath id="clippath-9"><path class="cls-1" d="M825.91-.61h571.38v380.05H825.91z"/></clipPath><clipPath id="clippath-10"><path class="cls-1" d="M825.91-.61h571.38v380.05H825.91z"/></clipPath><clipPath id="clippath-11"><path class="cls-1" d="M825.91-.61h571.38v380.05H825.91z"/></clipPath><clipPath id="clippath-12"><path class="cls-1" d="M825.91-.61h571.38v380.05H825.91z"/></clipPath><clipPath id="clippath-13"><path class="cls-1" d="M825.91-.61h571.38v380.05H825.91z"/></clipPath><clipPath id="clippath-14"><path class="cls-1" d="M825.91-.61h571.38v380.05H825.91z"/></clipPath><clipPath id="clippath-15"><path class="cls-1" d="M825.91-.61h571.38v380.05H825.91z"/></clipPath><clipPath id="clippath-16"><path class="cls-1" d="M825.91-.61h571.38v380.05H825.91z"/></clipPath><clipPath id="clippath-17"><path class="cls-1" d="M825.91-.61h571.38v380.05H825.91z"/></clipPath><clipPath id="clippath-18"><path class="cls-1" d="M825.91-.61h571.38v380.05H825.91z"/></clipPath><clipPath id="clippath-19"><path class="cls-1" d="M825.91-.61h571.38v380.05H825.91z"/></clipPath><clipPath id="clippath-20"><path class="cls-1" d="M825.91-.61h571.38v380.05H825.91z"/></clipPath><clipPath id="clippath-21"><path class="cls-1" d="M825.91-.61h571.38v380.05H825.91z"/></clipPath><clipPath id="clippath-22"><path class="cls-1" d="M825.91-.61h571.38v380.05H825.91z"/></clipPath><clipPath id="clippath-23"><path class="cls-1" d="M825.91-.61h571.38v380.05H825.91z"/></clipPath><clipPath id="clippath-24"><path class="cls-1" d="M-2.62-.61h300.84v187.43H-2.62z"/></clipPath><clipPath id="clippath-25"><path class="cls-1" d="M589.98 185.47h235.13v194.29H589.98z"/></clipPath><clipPath id="clippath-26"><path class="cls-1" d="M298.5-.61h527.03v187.15H298.5z"/></clipPath><clipPath id="clippath-27"><path class="cls-1" d="M-2.62-.61h1399.91v964.26H-2.62z"/></clipPath><clipPath id="clippath-28"><path class="cls-1" d="M1483.08-373.98h449.22V.65h-449.22z"/></clipPath><clipPath id="clippath-29"><path class="cls-1" d="M94.13 750.1h494.46v213.55H94.13z"/></clipPath><clipPath id="clippath-30"><path class="cls-1" d="M-2.62 750.98v212.67l103.95-12.51V750.98H-2.62z"/></clipPath><style>.cls-1,.cls-14,.cls-15,.cls-2,.cls-3{fill:none}.cls-2{stroke-width:12.23px}.cls-14,.cls-15,.cls-2,.cls-3{stroke:#004baa;stroke-miterlimit:10}.cls-3{stroke-width:23.07px}.cls-38{fill:#004baa}.cls-39{fill:#fff}.cls-14{stroke-width:6.14px}.cls-15{stroke-width:2.55px}</style></defs><g clip-path="url(#clippath)" fill="none" id="_レイヤー_1-2" data-name="レイヤー 1"><g id="_グループ_4302" data-name="グループ 4302"><g clip-path="url(#clippath-1)" id="_グループ_4303" data-name="グループ 4303"><g id="_グループ_4302-2" data-name="グループ 4302-2"><path id="_線_354" data-name="線 354" class="cls-3" d="M-169.22 923.92L1600.11-845.4"/><path id="_線_355" data-name="線 355" class="cls-3" d="M-128.78 964.37L1640.55-804.96"/><path id="_線_356" data-name="線 356" class="cls-3" d="M-88.33 1004.81L1680.99-764.52"/><path id="_線_357" data-name="線 357" class="cls-3" d="M-47.89 1045.25L1721.43-724.08"/><path id="_線_358" data-name="線 358" class="cls-3" d="M-7.45 1085.69L1761.88-683.63"/><path id="_線_359" data-name="線 359" class="cls-3" d="M32.99 1126.13L1802.32-643.19"/><path id="_線_360" data-name="線 360" class="cls-3" d="M73.43 1166.57L1842.76-602.75"/><path id="_線_361" data-name="線 361" class="cls-3" d="M113.88 1207.02L1883.2-562.31"/><path id="_線_362" data-name="線 362" class="cls-3" d="M154.32 1247.46L1923.64-521.87"/><path id="_線_363" data-name="線 363" class="cls-3" d="M194.76 1287.9L1964.08-481.43"/><path id="_線_364" data-name="線 364" class="cls-3" d="M235.2 1328.34L2004.53-440.98"/><path id="_線_365" data-name="線 365" class="cls-3" d="M275.64 1368.78L2044.97-400.54"/><path id="_線_366" data-name="線 366" class="cls-3" d="M316.08 1409.22L2085.41-360.1"/><path id="_線_367" data-name="線 367" class="cls-3" d="M356.53 1449.67L2125.85-319.66"/><path id="_線_368" data-name="線 368" class="cls-3" d="M396.97 1490.11L2166.29-279.22"/><path id="_線_369" data-name="線 369" class="cls-3" d="M437.41 1530.55L2206.73-238.78"/><path id="_線_370" data-name="線 370" class="cls-3" d="M477.85 1570.99L2247.18-198.33"/><path id="_線_371" data-name="線 371" class="cls-3" d="M518.29 1611.43L2287.62-157.89"/><path id="_線_372" data-name="線 372" class="cls-3" d="M558.73 1651.87L2328.06-117.45"/><path id="_線_373" data-name="線 373" class="cls-3" d="M599.18 1692.32L2368.5-77.01"/><path id="_線_374" data-name="線 374" class="cls-3" d="M639.62 1732.76L2408.94-36.57"/><path id="_線_375" data-name="線 375" class="cls-3" d="M680.06 1773.2L2449.38 3.88"/><path id="_線_376" data-name="線 376" class="cls-3" d="M720.5 1813.64L2489.83 44.32"/><path id="_線_377" data-name="線 377" class="cls-3" d="M760.94 1854.08L2530.27 84.76"/><path id="_線_378" data-name="線 378" class="cls-3" d="M801.38 1894.53L2570.71 125.2"/><path id="_線_379" data-name="線 379" class="cls-3" d="M841.83 1934.97L2611.15 165.64"/><path id="_線_380" data-name="線 380" class="cls-3" d="M882.27 1975.41L2651.59 206.08"/><path id="_線_381" data-name="線 381" class="cls-3" d="M922.71 2015.85L2692.03 246.53"/><path id="_線_382" data-name="線 382" class="cls-3" d="M963.15 2056.29L2732.48 286.97"/><path id="_線_383" data-name="線 383" class="cls-3" d="M1003.59 2096.73L2772.92 327.41"/><path id="_線_384" data-name="線 384" class="cls-3" d="M1044.03 2137.18L2813.36 367.85"/><path id="_線_385" data-name="線 385" class="cls-3" d="M1084.48 2177.62L2853.8 408.29"/><path id="_線_386" data-name="線 386" class="cls-3" d="M1124.92 2218.06L2894.24 448.73"/><path id="_線_387" data-name="線 387" class="cls-3" d="M1165.36 2258.5L2934.68 489.18"/><path id="_線_388" data-name="線 388" class="cls-3" d="M1205.8 2298.94L2975.13 529.62"/><path id="_線_389" data-name="線 389" class="cls-3" d="M1246.24 2339.38L3015.57 570.06"/><path id="_線_390" data-name="線 390" class="cls-3" d="M1286.68 2379.83L3056.01 610.5"/><path id="_線_391" data-name="線 391" class="cls-3" d="M1327.13 2420.27L3096.45 650.94"/><path id="_線_392" data-name="線 392" class="cls-3" d="M1367.57 2460.71L3136.89 691.38"/></g></g><g clip-path="url(#clippath-2)" id="_グループ_4305" data-name="グループ 4305"><g id="_グループ_4304" data-name="グループ 4304"><path id="_パス_32351" data-name="パス 32351" class="cls-14" d="M-.42 800.29c0-9.52 9.23-9.52 9.23-19.04s-9.23-9.52-9.23-19.04 9.23-9.52 9.23-19.04-9.23-9.52-9.23-19.04 9.23-9.52 9.23-19.05-9.23-9.52-9.23-19.04 9.23-9.52 9.23-19.04-9.23-9.52-9.23-19.04 9.23-9.52 9.23-19.04-9.23-9.52-9.23-19.04 9.23-9.52 9.23-19.04-9.23-9.52-9.23-19.04 9.23-9.52 9.23-19.05-9.23-9.52-9.23-19.04 9.23-9.52 9.23-19.04-9.23-9.53-9.23-19.05 9.23-9.52 9.23-19.04-9.23-9.53-9.23-19.05 9.23-9.52 9.23-19.05-9.23-9.52-9.23-19.04 9.23-9.52 9.23-19.05-9.23-9.52-9.23-19.04 9.23-9.52 9.23-19.04-9.23-9.52-9.23-19.05 9.23-9.52 9.23-19.05-9.23-9.51-9.23-19.04 9.23-9.52 9.23-19.05-9.23-9.51-9.23-19.04 9.23-9.52 9.23-19.05-9.23-9.52-9.23-19.04 9.23-9.53 9.23-19.05-9.23-9.52-9.23-19.05 9.23-9.53 9.23-19.05-9.23-9.53-9.23-19.05"/><path id="_パス_32352" data-name="パス 32352" class="cls-14" d="M27.91 800.29c0-9.52 9.23-9.52 9.23-19.04s-9.23-9.52-9.23-19.04 9.23-9.52 9.23-19.04-9.23-9.52-9.23-19.04 9.23-9.52 9.23-19.05-9.23-9.52-9.23-19.04 9.23-9.52 9.23-19.04-9.23-9.52-9.23-19.04 9.23-9.52 9.23-19.04-9.23-9.52-9.23-19.04 9.23-9.52 9.23-19.04-9.23-9.52-9.23-19.04 9.23-9.52 9.23-19.05-9.23-9.52-9.23-19.04 9.23-9.52 9.23-19.04-9.23-9.52-9.23-19.04 9.23-9.52 9.23-19.04-9.23-9.52-9.23-19.04 9.23-9.52 9.23-19.05-9.23-9.52-9.23-19.04 9.23-9.52 9.23-19.05-9.23-9.52-9.23-19.05 9.23-9.52 9.23-19.04-9.23-9.52-9.23-19.04 9.23-9.52 9.23-19.05-9.23-9.52-9.23-19.04 9.23-9.52 9.23-19.05-9.23-9.52-9.23-19.05 9.23-9.52 9.23-19.05-9.23-9.52-9.23-19.04 9.23-9.53 9.23-19.05-9.23-9.53-9.23-19.05 9.23-9.53 9.23-19.05-9.23-9.53-9.23-19.05"/><path id="_パス_32353" data-name="パス 32353" class="cls-14" d="M56.24 800.29c0-9.52 9.23-9.52 9.23-19.04s-9.23-9.52-9.23-19.04 9.23-9.52 9.23-19.04-9.23-9.52-9.23-19.04 9.23-9.52 9.23-19.05-9.23-9.52-9.23-19.04 9.23-9.52 9.23-19.04-9.23-9.52-9.23-19.04 9.23-9.52 9.23-19.04-9.23-9.52-9.23-19.04 9.23-9.52 9.23-19.04-9.23-9.52-9.23-19.04 9.23-9.52 9.23-19.05-9.23-9.52-9.23-19.04 9.23-9.52 9.23-19.04-9.23-9.52-9.23-19.04 9.23-9.52 9.23-19.04-9.23-9.52-9.23-19.04 9.23-9.52 9.23-19.05-9.23-9.52-9.23-19.04 9.23-9.52 9.23-19.05-9.23-9.52-9.23-19.05 9.23-9.52 9.23-19.04-9.23-9.52-9.23-19.04 9.23-9.52 9.23-19.05-9.23-9.52-9.23-19.04 9.23-9.52 9.23-19.05-9.23-9.52-9.23-19.05 9.23-9.52 9.23-19.05-9.23-9.52-9.23-19.04 9.23-9.53 9.23-19.05-9.23-9.53-9.23-19.05 9.23-9.53 9.23-19.05-9.23-9.53-9.23-19.05"/><path id="_パス_32354" data-name="パス 32354" class="cls-14" d="M84.57 800.29c0-9.52 9.23-9.52 9.23-19.04s-9.23-9.52-9.23-19.04 9.23-9.52 9.23-19.04-9.23-9.52-9.23-19.04 9.23-9.52 9.23-19.05-9.23-9.52-9.23-19.04 9.23-9.52 9.23-19.04-9.23-9.52-9.23-19.04 9.23-9.52 9.23-19.04-9.23-9.52-9.23-19.04 9.23-9.52 9.23-19.04-9.23-9.52-9.23-19.04 9.23-9.52 9.23-19.05-9.23-9.52-9.23-19.04 9.23-9.52 9.23-19.04-9.23-9.52-9.23-19.04 9.23-9.52 9.23-19.04-9.23-9.52-9.23-19.04 9.23-9.52 9.23-19.05-9.23-9.52-9.23-19.04 9.23-9.52 9.23-19.05-9.23-9.52-9.23-19.05 9.23-9.52 9.23-19.04-9.23-9.52-9.23-19.04 9.23-9.52 9.23-19.05-9.23-9.52-9.23-19.04 9.23-9.52 9.23-19.05-9.23-9.52-9.23-19.05 9.23-9.52 9.23-19.05-9.23-9.52-9.23-19.04 9.23-9.53 9.23-19.05-9.23-9.53-9.23-19.05 9.23-9.53 9.23-19.05-9.23-9.53-9.23-19.05"/><path id="_パス_32355" data-name="パス 32355" class="cls-14" d="M112.9 800.29c0-9.52 9.23-9.52 9.23-19.04s-9.23-9.52-9.23-19.04 9.23-9.52 9.23-19.04-9.23-9.52-9.23-19.04 9.23-9.52 9.23-19.05-9.23-9.52-9.23-19.04 9.23-9.52 9.23-19.04-9.23-9.52-9.23-19.04 9.23-9.52 9.23-19.04-9.23-9.52-9.23-19.04 9.23-9.52 9.23-19.04-9.23-9.52-9.23-19.04 9.23-9.52 9.23-19.05-9.23-9.52-9.23-19.04 9.23-9.52 9.23-19.04-9.23-9.52-9.23-19.04 9.23-9.52 9.23-19.04-9.23-9.52-9.23-19.04 9.23-9.52 9.23-19.05-9.23-9.52-9.23-19.04 9.23-9.52 9.23-19.05-9.23-9.52-9.23-19.05 9.23-9.52 9.23-19.04-9.23-9.52-9.23-19.04 9.23-9.52 9.23-19.05-9.23-9.52-9.23-19.04 9.23-9.52 9.23-19.05-9.23-9.52-9.23-19.05 9.23-9.52 9.23-19.05-9.23-9.52-9.23-19.04 9.23-9.53 9.23-19.05-9.23-9.53-9.23-19.05 9.23-9.53 9.23-19.05-9.23-9.53-9.23-19.05"/><path id="_パス_32356" data-name="パス 32356" class="cls-14" d="M141.23 800.29c0-9.52 9.23-9.52 9.23-19.04s-9.23-9.52-9.23-19.04 9.23-9.52 9.23-19.04-9.23-9.52-9.23-19.04 9.23-9.52 9.23-19.05-9.23-9.52-9.23-19.04 9.23-9.52 9.23-19.04-9.23-9.52-9.23-19.04 9.23-9.52 9.23-19.04-9.23-9.52-9.23-19.04 9.23-9.52 9.23-19.04-9.23-9.52-9.23-19.04 9.23-9.52 9.23-19.05-9.23-9.52-9.23-19.04 9.23-9.52 9.23-19.04-9.23-9.52-9.23-19.04 9.23-9.52 9.23-19.04-9.23-9.52-9.23-19.04 9.23-9.52 9.23-19.05-9.23-9.52-9.23-19.04 9.23-9.52 9.23-19.05-9.23-9.52-9.23-19.05 9.23-9.52 9.23-19.04-9.23-9.52-9.23-19.04 9.23-9.52 9.23-19.05-9.23-9.52-9.23-19.04 9.23-9.52 9.23-19.05-9.23-9.52-9.23-19.05 9.23-9.52 9.23-19.05-9.23-9.52-9.23-19.04 9.23-9.53 9.23-19.05-9.23-9.53-9.23-19.05 9.23-9.53 9.23-19.05-9.23-9.53-9.23-19.05"/><path id="_パス_32357" data-name="パス 32357" class="cls-14" d="M169.55 800.29c0-9.52 9.23-9.52 9.23-19.04s-9.23-9.52-9.23-19.04 9.23-9.52 9.23-19.04-9.23-9.52-9.23-19.04 9.23-9.52 9.23-19.05-9.23-9.52-9.23-19.04 9.23-9.52 9.23-19.04-9.23-9.52-9.23-19.04 9.23-9.52 9.23-19.04-9.23-9.52-9.23-19.04 9.23-9.52 9.23-19.04-9.23-9.52-9.23-19.04 9.23-9.52 9.23-19.05-9.23-9.52-9.23-19.04 9.23-9.52 9.23-19.04-9.23-9.52-9.23-19.04 9.23-9.52 9.23-19.04-9.23-9.52-9.23-19.04 9.23-9.52 9.23-19.05-9.23-9.52-9.23-19.04 9.23-9.52 9.23-19.05-9.23-9.52-9.23-19.05 9.23-9.52 9.23-19.04-9.23-9.52-9.23-19.04 9.23-9.52 9.23-19.05-9.23-9.52-9.23-19.04 9.23-9.52 9.23-19.05-9.23-9.52-9.23-19.05 9.23-9.52 9.23-19.05-9.23-9.52-9.23-19.04 9.23-9.53 9.23-19.05-9.23-9.53-9.23-19.05 9.23-9.53 9.23-19.05-9.23-9.53-9.23-19.05"/><path id="_パス_32358" data-name="パス 32358" class="cls-14" d="M197.88 800.29c0-9.52 9.23-9.52 9.23-19.04s-9.23-9.52-9.23-19.04 9.23-9.52 9.23-19.04-9.23-9.52-9.23-19.04 9.23-9.52 9.23-19.05-9.23-9.52-9.23-19.04 9.23-9.52 9.23-19.04-9.23-9.52-9.23-19.04 9.23-9.52 9.23-19.04-9.23-9.52-9.23-19.04 9.23-9.52 9.23-19.04-9.23-9.52-9.23-19.04 9.23-9.52 9.23-19.05-9.23-9.52-9.23-19.04 9.23-9.52 9.23-19.04-9.23-9.52-9.23-19.04 9.23-9.52 9.23-19.04-9.23-9.52-9.23-19.04 9.23-9.52 9.23-19.05-9.23-9.52-9.23-19.04 9.23-9.52 9.23-19.05-9.23-9.52-9.23-19.05 9.23-9.52 9.23-19.04-9.23-9.52-9.23-19.04 9.23-9.52 9.23-19.05-9.23-9.52-9.23-19.04 9.23-9.52 9.23-19.05-9.23-9.52-9.23-19.05 9.23-9.52 9.23-19.05-9.23-9.52-9.23-19.04 9.23-9.53 9.23-19.05-9.23-9.53-9.23-19.05 9.23-9.53 9.23-19.05-9.23-9.53-9.23-19.05"/><path id="_パス_32359" data-name="パス 32359" class="cls-14" d="M226.21 800.29c0-9.52 9.23-9.52 9.23-19.04s-9.23-9.52-9.23-19.04 9.23-9.52 9.23-19.04-9.23-9.52-9.23-19.04 9.23-9.52 9.23-19.05-9.23-9.52-9.23-19.04 9.23-9.52 9.23-19.04-9.23-9.52-9.23-19.04 9.23-9.52 9.23-19.04-9.23-9.52-9.23-19.04 9.23-9.52 9.23-19.04-9.23-9.52-9.23-19.04 9.23-9.52 9.23-19.05-9.23-9.52-9.23-19.04 9.23-9.52 9.23-19.04-9.23-9.52-9.23-19.04 9.23-9.52 9.23-19.04-9.23-9.52-9.23-19.04 9.23-9.52 9.23-19.05-9.23-9.52-9.23-19.04 9.23-9.52 9.23-19.05-9.23-9.52-9.23-19.05 9.23-9.52 9.23-19.04-9.23-9.52-9.23-19.04 9.23-9.52 9.23-19.05-9.23-9.52-9.23-19.04 9.23-9.52 9.23-19.05-9.23-9.52-9.23-19.05 9.23-9.52 9.23-19.05-9.23-9.52-9.23-19.04 9.23-9.53 9.23-19.05-9.23-9.53-9.23-19.05 9.23-9.53 9.23-19.05-9.23-9.53-9.23-19.05"/><path id="_パス_32360" data-name="パス 32360" class="cls-14" d="M254.54 800.29c0-9.52 9.23-9.52 9.23-19.04s-9.23-9.52-9.23-19.04 9.23-9.52 9.23-19.04-9.23-9.52-9.23-19.04 9.23-9.52 9.23-19.05-9.23-9.52-9.23-19.04 9.23-9.52 9.23-19.04-9.23-9.52-9.23-19.04 9.23-9.52 9.23-19.04-9.23-9.52-9.23-19.04 9.23-9.52 9.23-19.04-9.23-9.52-9.23-19.04 9.23-9.52 9.23-19.05-9.23-9.52-9.23-19.04 9.23-9.52 9.23-19.04-9.23-9.52-9.23-19.04 9.23-9.52 9.23-19.04-9.23-9.52-9.23-19.04 9.23-9.52 9.23-19.05-9.23-9.52-9.23-19.04 9.23-9.52 9.23-19.05-9.23-9.52-9.23-19.05 9.23-9.52 9.23-19.04-9.23-9.52-9.23-19.04 9.23-9.52 9.23-19.05-9.23-9.52-9.23-19.04 9.23-9.52 9.23-19.05-9.23-9.52-9.23-19.05 9.23-9.52 9.23-19.05-9.23-9.52-9.23-19.04 9.23-9.53 9.23-19.05-9.23-9.53-9.23-19.05 9.23-9.53 9.23-19.05-9.23-9.53-9.23-19.05"/><path id="_パス_32361" data-name="パス 32361" class="cls-14" d="M282.87 800.29c0-9.52 9.23-9.52 9.23-19.04s-9.23-9.52-9.23-19.04 9.23-9.52 9.23-19.04-9.23-9.52-9.23-19.04 9.23-9.52 9.23-19.05-9.23-9.52-9.23-19.04 9.23-9.52 9.23-19.04-9.23-9.52-9.23-19.04 9.23-9.52 9.23-19.04-9.23-9.52-9.23-19.04 9.23-9.52 9.23-19.04-9.23-9.52-9.23-19.04 9.23-9.52 9.23-19.05-9.23-9.52-9.23-19.04 9.23-9.52 9.23-19.04-9.23-9.52-9.23-19.04 9.23-9.52 9.23-19.04-9.23-9.52-9.23-19.04 9.23-9.52 9.23-19.05-9.23-9.52-9.23-19.04 9.23-9.52 9.23-19.05-9.23-9.52-9.23-19.05 9.23-9.52 9.23-19.04-9.23-9.52-9.23-19.04 9.23-9.52 9.23-19.05-9.23-9.52-9.23-19.04 9.23-9.52 9.23-19.05-9.23-9.52-9.23-19.05 9.23-9.52 9.23-19.05-9.23-9.52-9.23-19.04 9.23-9.53 9.23-19.05-9.23-9.53-9.23-19.05 9.23-9.53 9.23-19.05-9.23-9.53-9.23-19.05"/><path id="_パス_32362" data-name="パス 32362" class="cls-14" d="M311.2 800.29c0-9.52 9.23-9.52 9.23-19.04s-9.23-9.52-9.23-19.04 9.23-9.52 9.23-19.04-9.23-9.52-9.23-19.04 9.23-9.52 9.23-19.05-9.23-9.52-9.23-19.04 9.23-9.52 9.23-19.04-9.23-9.52-9.23-19.04 9.23-9.52 9.23-19.04-9.23-9.52-9.23-19.04 9.23-9.52 9.23-19.04-9.23-9.52-9.23-19.04 9.23-9.52 9.23-19.05-9.23-9.52-9.23-19.04 9.23-9.52 9.23-19.04-9.23-9.52-9.23-19.04 9.23-9.52 9.23-19.04-9.23-9.52-9.23-19.04 9.23-9.52 9.23-19.05-9.23-9.52-9.23-19.04 9.23-9.52 9.23-19.05-9.23-9.52-9.23-19.05 9.23-9.52 9.23-19.04-9.23-9.52-9.23-19.04 9.23-9.52 9.23-19.05-9.23-9.52-9.23-19.04 9.23-9.52 9.23-19.05-9.23-9.52-9.23-19.05 9.23-9.52 9.23-19.05-9.23-9.52-9.23-19.04 9.23-9.53 9.23-19.05-9.23-9.53-9.23-19.05 9.23-9.53 9.23-19.05-9.23-9.53-9.23-19.05"/><path id="_パス_32363" data-name="パス 32363" class="cls-14" d="M339.53 800.29c0-9.52 9.23-9.52 9.23-19.04s-9.23-9.52-9.23-19.04 9.23-9.52 9.23-19.04-9.23-9.52-9.23-19.04 9.23-9.52 9.23-19.05-9.23-9.52-9.23-19.04 9.23-9.52 9.23-19.04-9.23-9.52-9.23-19.04 9.23-9.52 9.23-19.04-9.23-9.52-9.23-19.04 9.23-9.52 9.23-19.04-9.23-9.52-9.23-19.04 9.23-9.52 9.23-19.05-9.23-9.52-9.23-19.04 9.23-9.52 9.23-19.04-9.23-9.52-9.23-19.04 9.23-9.52 9.23-19.04-9.23-9.52-9.23-19.04 9.23-9.52 9.23-19.05-9.23-9.52-9.23-19.04 9.23-9.52 9.23-19.05-9.23-9.52-9.23-19.05 9.23-9.52 9.23-19.04-9.23-9.52-9.23-19.04 9.23-9.52 9.23-19.05-9.23-9.52-9.23-19.04 9.23-9.52 9.23-19.05-9.23-9.52-9.23-19.05 9.23-9.52 9.23-19.05-9.23-9.52-9.23-19.04 9.23-9.53 9.23-19.05-9.23-9.53-9.23-19.05 9.23-9.53 9.23-19.05-9.23-9.53-9.23-19.05"/><path id="_パス_32364" data-name="パス 32364" class="cls-14" d="M367.85 800.29c0-9.52 9.23-9.52 9.23-19.04s-9.23-9.52-9.23-19.04 9.23-9.52 9.23-19.04-9.23-9.52-9.23-19.04 9.23-9.52 9.23-19.05-9.23-9.52-9.23-19.04 9.23-9.52 9.23-19.04-9.23-9.52-9.23-19.04 9.23-9.52 9.23-19.04-9.23-9.52-9.23-19.04 9.23-9.52 9.23-19.04-9.23-9.52-9.23-19.04 9.23-9.52 9.23-19.05-9.23-9.52-9.23-19.04 9.23-9.52 9.23-19.04-9.23-9.52-9.23-19.04 9.23-9.52 9.23-19.04-9.23-9.52-9.23-19.04 9.23-9.52 9.23-19.05-9.23-9.52-9.23-19.04 9.23-9.52 9.23-19.05-9.23-9.52-9.23-19.05 9.23-9.52 9.23-19.04-9.23-9.52-9.23-19.04 9.23-9.52 9.23-19.05-9.23-9.52-9.23-19.04 9.23-9.52 9.23-19.05-9.23-9.52-9.23-19.05 9.23-9.52 9.23-19.05-9.23-9.52-9.23-19.04 9.23-9.53 9.23-19.05-9.23-9.53-9.23-19.05 9.23-9.53 9.23-19.05-9.23-9.53-9.23-19.05"/><path id="_パス_32365" data-name="パス 32365" class="cls-14" d="M396.18 800.29c0-9.52 9.23-9.52 9.23-19.04s-9.23-9.52-9.23-19.04 9.23-9.52 9.23-19.04-9.23-9.52-9.23-19.04 9.23-9.52 9.23-19.05-9.23-9.52-9.23-19.04 9.23-9.52 9.23-19.04-9.23-9.52-9.23-19.04 9.23-9.52 9.23-19.04-9.23-9.52-9.23-19.04 9.23-9.52 9.23-19.04-9.23-9.52-9.23-19.04 9.23-9.52 9.23-19.05-9.23-9.52-9.23-19.04 9.23-9.52 9.23-19.04-9.23-9.52-9.23-19.04 9.23-9.52 9.23-19.04-9.23-9.52-9.23-19.04 9.23-9.52 9.23-19.05-9.23-9.52-9.23-19.04 9.23-9.52 9.23-19.05-9.23-9.52-9.23-19.05 9.23-9.52 9.23-19.04-9.23-9.52-9.23-19.04 9.23-9.52 9.23-19.05-9.23-9.52-9.23-19.04 9.23-9.52 9.23-19.05-9.23-9.52-9.23-19.05 9.23-9.52 9.23-19.05-9.23-9.52-9.23-19.04 9.23-9.53 9.23-19.05-9.23-9.53-9.23-19.05 9.23-9.53 9.23-19.05-9.23-9.53-9.23-19.05"/><path id="_パス_32366" data-name="パス 32366" class="cls-14" d="M424.51 800.29c0-9.52 9.23-9.52 9.23-19.04s-9.23-9.52-9.23-19.04 9.23-9.52 9.23-19.04-9.23-9.52-9.23-19.04 9.23-9.52 9.23-19.05-9.23-9.52-9.23-19.04 9.23-9.52 9.23-19.04-9.23-9.52-9.23-19.04 9.23-9.52 9.23-19.04-9.23-9.52-9.23-19.04 9.23-9.52 9.23-19.04-9.23-9.52-9.23-19.04 9.23-9.52 9.23-19.05-9.23-9.52-9.23-19.04 9.23-9.52 9.23-19.04-9.23-9.52-9.23-19.04 9.23-9.52 9.23-19.04-9.23-9.52-9.23-19.04 9.23-9.52 9.23-19.05-9.23-9.52-9.23-19.04 9.23-9.52 9.23-19.05-9.23-9.52-9.23-19.05 9.23-9.52 9.23-19.04-9.23-9.52-9.23-19.04 9.23-9.52 9.23-19.05-9.23-9.52-9.23-19.04 9.23-9.52 9.23-19.05-9.23-9.52-9.23-19.05 9.23-9.52 9.23-19.05-9.23-9.52-9.23-19.04 9.23-9.53 9.23-19.05-9.23-9.53-9.23-19.05 9.23-9.53 9.23-19.05-9.23-9.53-9.23-19.05"/><path id="_パス_32367" data-name="パス 32367" class="cls-14" d="M465.62 800.29c0-9.52 9.23-9.52 9.23-19.04s-9.23-9.52-9.23-19.04 9.23-9.52 9.23-19.04-9.23-9.52-9.23-19.04 9.23-9.52 9.23-19.05-9.23-9.52-9.23-19.04 9.23-9.52 9.23-19.04-9.23-9.52-9.23-19.04 9.23-9.52 9.23-19.04-9.23-9.52-9.23-19.04 9.23-9.52 9.23-19.04-9.23-9.52-9.23-19.04 9.23-9.52 9.23-19.05-9.23-9.52-9.23-19.04 9.23-9.52 9.23-19.04-9.23-9.52-9.23-19.04 9.23-9.52 9.23-19.04-9.23-9.52-9.23-19.04 9.23-9.52 9.23-19.05-9.23-9.52-9.23-19.04 9.23-9.52 9.23-19.05-9.23-9.52-9.23-19.05 9.23-9.52 9.23-19.04-9.23-9.52-9.23-19.04 9.23-9.52 9.23-19.05-9.23-9.52-9.23-19.04 9.23-9.52 9.23-19.05-9.23-9.52-9.23-19.05 9.23-9.52 9.23-19.05-9.23-9.52-9.23-19.04 9.23-9.53 9.23-19.05-9.23-9.53-9.23-19.05 9.23-9.53 9.23-19.05-9.23-9.53-9.23-19.05"/><path id="_パス_32368" data-name="パス 32368" class="cls-14" d="M493.95 800.29c0-9.52 9.23-9.52 9.23-19.04s-9.23-9.52-9.23-19.04 9.23-9.52 9.23-19.04-9.23-9.52-9.23-19.04 9.23-9.52 9.23-19.05-9.23-9.52-9.23-19.04 9.23-9.52 9.23-19.04-9.23-9.52-9.23-19.04 9.23-9.52 9.23-19.04-9.23-9.52-9.23-19.04 9.23-9.52 9.23-19.04-9.23-9.52-9.23-19.04 9.23-9.52 9.23-19.05-9.23-9.52-9.23-19.04 9.23-9.52 9.23-19.04-9.23-9.52-9.23-19.04 9.23-9.52 9.23-19.04-9.23-9.52-9.23-19.04 9.23-9.52 9.23-19.05-9.23-9.52-9.23-19.04 9.23-9.52 9.23-19.05-9.23-9.52-9.23-19.05 9.23-9.52 9.23-19.04-9.23-9.52-9.23-19.04 9.23-9.52 9.23-19.05-9.23-9.52-9.23-19.04 9.23-9.52 9.23-19.05-9.23-9.52-9.23-19.05 9.23-9.52 9.23-19.05-9.23-9.52-9.23-19.04 9.23-9.53 9.23-19.05-9.23-9.53-9.23-19.05 9.23-9.53 9.23-19.05-9.23-9.53-9.23-19.05"/><path id="_パス_32369" data-name="パス 32369" class="cls-14" d="M522.28 800.29c0-9.52 9.23-9.52 9.23-19.04s-9.23-9.52-9.23-19.04 9.23-9.52 9.23-19.04-9.23-9.52-9.23-19.04 9.23-9.52 9.23-19.05-9.23-9.52-9.23-19.04 9.23-9.52 9.23-19.04-9.23-9.52-9.23-19.04 9.23-9.52 9.23-19.04-9.23-9.52-9.23-19.04 9.23-9.52 9.23-19.04-9.23-9.52-9.23-19.04 9.23-9.52 9.23-19.05-9.23-9.52-9.23-19.04 9.23-9.52 9.23-19.04-9.23-9.52-9.23-19.04 9.23-9.52 9.23-19.04-9.23-9.52-9.23-19.04 9.23-9.52 9.23-19.05-9.23-9.52-9.23-19.04 9.23-9.52 9.23-19.05-9.23-9.52-9.23-19.05 9.23-9.52 9.23-19.04-9.23-9.52-9.23-19.04 9.23-9.52 9.23-19.05-9.23-9.52-9.23-19.04 9.23-9.52 9.23-19.05-9.23-9.52-9.23-19.05 9.23-9.52 9.23-19.05-9.23-9.52-9.23-19.04 9.23-9.53 9.23-19.05-9.23-9.53-9.23-19.05 9.23-9.53 9.23-19.05-9.23-9.53-9.23-19.05"/><path id="_パス_32370" data-name="パス 32370" class="cls-14" d="M550.6 800.29c0-9.52 9.23-9.52 9.23-19.04s-9.23-9.52-9.23-19.04 9.23-9.52 9.23-19.04-9.23-9.52-9.23-19.04 9.23-9.52 9.23-19.05-9.23-9.52-9.23-19.04 9.23-9.52 9.23-19.04-9.23-9.52-9.23-19.04 9.23-9.52 9.23-19.04-9.23-9.52-9.23-19.04 9.23-9.52 9.23-19.04-9.23-9.52-9.23-19.04 9.23-9.52 9.23-19.05-9.23-9.52-9.23-19.04 9.23-9.52 9.23-19.04-9.23-9.52-9.23-19.04 9.23-9.52 9.23-19.04-9.23-9.52-9.23-19.04 9.23-9.52 9.23-19.05-9.23-9.52-9.23-19.04 9.23-9.52 9.23-19.05-9.23-9.52-9.23-19.05 9.23-9.52 9.23-19.04-9.23-9.52-9.23-19.04 9.23-9.52 9.23-19.05-9.23-9.52-9.23-19.04 9.23-9.52 9.23-19.05-9.23-9.52-9.23-19.05 9.23-9.52 9.23-19.05-9.23-9.52-9.23-19.04 9.23-9.53 9.23-19.05-9.23-9.53-9.23-19.05 9.23-9.53 9.23-19.05-9.23-9.53-9.23-19.05"/><path id="_パス_32371" data-name="パス 32371" class="cls-14" d="M578.93 800.29c0-9.52 9.23-9.52 9.23-19.04s-9.23-9.52-9.23-19.04 9.23-9.52 9.23-19.04-9.23-9.52-9.23-19.04 9.23-9.52 9.23-19.05-9.23-9.52-9.23-19.04 9.23-9.52 9.23-19.04-9.23-9.52-9.23-19.04 9.23-9.52 9.23-19.04-9.23-9.52-9.23-19.04 9.23-9.52 9.23-19.04-9.23-9.52-9.23-19.04 9.23-9.52 9.23-19.05-9.23-9.52-9.23-19.04 9.23-9.52 9.23-19.04-9.23-9.52-9.23-19.04 9.23-9.52 9.23-19.04-9.23-9.52-9.23-19.04 9.23-9.52 9.23-19.05-9.23-9.52-9.23-19.04 9.23-9.52 9.23-19.05-9.23-9.52-9.23-19.05 9.23-9.52 9.23-19.04-9.23-9.52-9.23-19.04 9.23-9.52 9.23-19.05-9.23-9.52-9.23-19.04 9.23-9.52 9.23-19.05-9.23-9.52-9.23-19.05 9.23-9.52 9.23-19.05-9.23-9.52-9.23-19.04 9.23-9.53 9.23-19.05-9.23-9.53-9.23-19.05 9.23-9.53 9.23-19.05-9.23-9.53-9.23-19.05"/><path id="_パス_32372" data-name="パス 32372" class="cls-14" d="M607.26 800.29c0-9.52 9.23-9.52 9.23-19.04s-9.23-9.52-9.23-19.04 9.23-9.52 9.23-19.04-9.23-9.52-9.23-19.04 9.23-9.52 9.23-19.05-9.23-9.52-9.23-19.04 9.23-9.52 9.23-19.04-9.23-9.52-9.23-19.04 9.23-9.52 9.23-19.04-9.23-9.52-9.23-19.04 9.23-9.52 9.23-19.04-9.23-9.52-9.23-19.04 9.23-9.52 9.23-19.05-9.23-9.52-9.23-19.04 9.23-9.52 9.23-19.04-9.23-9.52-9.23-19.04 9.23-9.52 9.23-19.04-9.23-9.52-9.23-19.04 9.23-9.52 9.23-19.05-9.23-9.52-9.23-19.04 9.23-9.52 9.23-19.05-9.23-9.52-9.23-19.05 9.23-9.52 9.23-19.04-9.23-9.52-9.23-19.04 9.23-9.52 9.23-19.05-9.23-9.52-9.23-19.04 9.23-9.52 9.23-19.05-9.23-9.52-9.23-19.05 9.23-9.52 9.23-19.05-9.23-9.52-9.23-19.04 9.23-9.53 9.23-19.05-9.23-9.53-9.23-19.05 9.23-9.53 9.23-19.05-9.23-9.53-9.23-19.05"/><path id="_パス_32373" data-name="パス 32373" class="cls-14" d="M635.59 800.29c0-9.52 9.23-9.52 9.23-19.04s-9.23-9.52-9.23-19.04 9.23-9.52 9.23-19.04-9.23-9.52-9.23-19.04 9.23-9.52 9.23-19.05-9.23-9.52-9.23-19.04 9.23-9.52 9.23-19.04-9.23-9.52-9.23-19.04 9.23-9.52 9.23-19.04-9.23-9.52-9.23-19.04 9.23-9.52 9.23-19.04-9.23-9.52-9.23-19.04 9.23-9.52 9.23-19.05-9.23-9.52-9.23-19.04 9.23-9.52 9.23-19.04-9.23-9.52-9.23-19.04 9.23-9.52 9.23-19.04-9.23-9.52-9.23-19.04 9.23-9.52 9.23-19.05-9.23-9.52-9.23-19.04 9.23-9.52 9.23-19.05-9.23-9.52-9.23-19.05 9.23-9.52 9.23-19.04-9.23-9.52-9.23-19.04 9.23-9.52 9.23-19.05-9.23-9.52-9.23-19.04 9.23-9.52 9.23-19.05-9.23-9.52-9.23-19.05 9.23-9.52 9.23-19.05-9.23-9.52-9.23-19.04 9.23-9.53 9.23-19.05-9.23-9.53-9.23-19.05 9.23-9.53 9.23-19.05-9.23-9.53-9.23-19.05"/><path id="_パス_32374" data-name="パス 32374" class="cls-14" d="M663.92 800.29c0-9.52 9.23-9.52 9.23-19.04s-9.23-9.52-9.23-19.04 9.23-9.52 9.23-19.04-9.23-9.52-9.23-19.04 9.23-9.52 9.23-19.05-9.23-9.52-9.23-19.04 9.23-9.52 9.23-19.04-9.23-9.52-9.23-19.04 9.23-9.52 9.23-19.04-9.23-9.52-9.23-19.04 9.23-9.52 9.23-19.04-9.23-9.52-9.23-19.04 9.23-9.52 9.23-19.05-9.23-9.52-9.23-19.04 9.23-9.52 9.23-19.04-9.23-9.52-9.23-19.04 9.23-9.52 9.23-19.04-9.23-9.52-9.23-19.04 9.23-9.52 9.23-19.05-9.23-9.52-9.23-19.04 9.23-9.52 9.23-19.05-9.23-9.52-9.23-19.05 9.23-9.52 9.23-19.04-9.23-9.52-9.23-19.04 9.23-9.52 9.23-19.05-9.23-9.52-9.23-19.04 9.23-9.52 9.23-19.05-9.23-9.52-9.23-19.05 9.23-9.52 9.23-19.05-9.23-9.52-9.23-19.04 9.23-9.53 9.23-19.05-9.23-9.53-9.23-19.05 9.23-9.53 9.23-19.05-9.23-9.53-9.23-19.05"/><path id="_パス_32375" data-name="パス 32375" class="cls-14" d="M692.25 800.29c0-9.52 9.23-9.52 9.23-19.04s-9.23-9.52-9.23-19.04 9.23-9.52 9.23-19.04-9.23-9.52-9.23-19.04 9.23-9.52 9.23-19.05-9.23-9.52-9.23-19.04 9.23-9.52 9.23-19.04-9.23-9.52-9.23-19.04 9.23-9.52 9.23-19.04-9.23-9.52-9.23-19.04 9.23-9.52 9.23-19.04-9.23-9.52-9.23-19.04 9.23-9.52 9.23-19.05-9.23-9.52-9.23-19.04 9.23-9.52 9.23-19.04-9.23-9.52-9.23-19.04 9.23-9.52 9.23-19.04-9.23-9.52-9.23-19.04 9.23-9.52 9.23-19.05-9.23-9.52-9.23-19.04 9.23-9.52 9.23-19.05-9.23-9.52-9.23-19.05 9.23-9.52 9.23-19.04-9.23-9.52-9.23-19.04 9.23-9.52 9.23-19.05-9.23-9.52-9.23-19.04 9.23-9.52 9.23-19.05-9.23-9.52-9.23-19.05 9.23-9.52 9.23-19.05-9.23-9.52-9.23-19.04 9.23-9.53 9.23-19.05-9.23-9.53-9.23-19.05 9.23-9.53 9.23-19.05-9.23-9.53-9.23-19.05"/><path id="_パス_32376" data-name="パス 32376" class="cls-14" d="M720.58 800.29c0-9.52 9.23-9.52 9.23-19.04s-9.23-9.52-9.23-19.04 9.23-9.52 9.23-19.04-9.23-9.52-9.23-19.04 9.23-9.52 9.23-19.05-9.23-9.52-9.23-19.04 9.23-9.52 9.23-19.04-9.23-9.52-9.23-19.04 9.23-9.52 9.23-19.04-9.23-9.52-9.23-19.04 9.23-9.52 9.23-19.04-9.23-9.52-9.23-19.04 9.23-9.52 9.23-19.05-9.23-9.52-9.23-19.04 9.23-9.52 9.23-19.04-9.23-9.52-9.23-19.04 9.23-9.52 9.23-19.04-9.23-9.52-9.23-19.04 9.23-9.52 9.23-19.05-9.23-9.52-9.23-19.04 9.23-9.52 9.23-19.05-9.23-9.52-9.23-19.05 9.23-9.52 9.23-19.04-9.23-9.52-9.23-19.04 9.23-9.52 9.23-19.05-9.23-9.52-9.23-19.04 9.23-9.52 9.23-19.05-9.23-9.52-9.23-19.05 9.23-9.52 9.23-19.05-9.23-9.52-9.23-19.04 9.23-9.53 9.23-19.05-9.23-9.53-9.23-19.05 9.23-9.53 9.23-19.05-9.23-9.53-9.23-19.05"/><path id="_パス_32377" data-name="パス 32377" class="cls-14" d="M748.9 800.29c0-9.52 9.23-9.52 9.23-19.04s-9.23-9.52-9.23-19.04 9.23-9.52 9.23-19.04-9.23-9.52-9.23-19.04 9.23-9.52 9.23-19.05-9.23-9.52-9.23-19.04 9.23-9.52 9.23-19.04-9.23-9.52-9.23-19.04 9.23-9.52 9.23-19.04-9.23-9.52-9.23-19.04 9.23-9.52 9.23-19.04-9.23-9.52-9.23-19.04 9.23-9.52 9.23-19.05-9.23-9.52-9.23-19.04 9.23-9.52 9.23-19.04-9.23-9.52-9.23-19.04 9.23-9.52 9.23-19.04-9.23-9.52-9.23-19.04 9.23-9.52 9.23-19.05-9.23-9.52-9.23-19.04 9.23-9.52 9.23-19.05-9.23-9.52-9.23-19.05 9.23-9.52 9.23-19.04-9.23-9.52-9.23-19.04 9.23-9.52 9.23-19.05-9.23-9.52-9.23-19.04 9.23-9.52 9.23-19.05-9.23-9.52-9.23-19.05 9.23-9.52 9.23-19.05-9.23-9.52-9.23-19.04 9.23-9.53 9.23-19.05-9.23-9.53-9.23-19.05 9.23-9.53 9.23-19.05-9.23-9.53-9.23-19.05"/><path id="_パス_32378" data-name="パス 32378" class="cls-14" d="M777.23 800.29c0-9.52 9.23-9.52 9.23-19.04s-9.23-9.52-9.23-19.04 9.23-9.52 9.23-19.04-9.23-9.52-9.23-19.04 9.23-9.52 9.23-19.05-9.23-9.52-9.23-19.04 9.23-9.52 9.23-19.04-9.23-9.52-9.23-19.04 9.23-9.52 9.23-19.04-9.23-9.52-9.23-19.04 9.23-9.52 9.23-19.04-9.23-9.52-9.23-19.04 9.23-9.52 9.23-19.05-9.23-9.52-9.23-19.04 9.23-9.52 9.23-19.04-9.23-9.52-9.23-19.04 9.23-9.52 9.23-19.04-9.23-9.52-9.23-19.04 9.23-9.52 9.23-19.05-9.23-9.52-9.23-19.04 9.23-9.52 9.23-19.05-9.23-9.52-9.23-19.05 9.23-9.52 9.23-19.04-9.23-9.52-9.23-19.04 9.23-9.52 9.23-19.05-9.23-9.52-9.23-19.04 9.23-9.52 9.23-19.05-9.23-9.52-9.23-19.05 9.23-9.52 9.23-19.05-9.23-9.52-9.23-19.04 9.23-9.53 9.23-19.05-9.23-9.53-9.23-19.05 9.23-9.53 9.23-19.05-9.23-9.53-9.23-19.05"/><path id="_パス_32379" data-name="パス 32379" class="cls-14" d="M805.56 800.29c0-9.52 9.23-9.52 9.23-19.04s-9.23-9.52-9.23-19.04 9.23-9.52 9.23-19.04-9.23-9.52-9.23-19.04 9.23-9.52 9.23-19.05-9.23-9.52-9.23-19.04 9.23-9.52 9.23-19.04-9.23-9.52-9.23-19.04 9.23-9.52 9.23-19.04-9.23-9.52-9.23-19.04 9.23-9.52 9.23-19.04-9.23-9.52-9.23-19.04 9.23-9.52 9.23-19.05-9.23-9.52-9.23-19.04 9.23-9.52 9.23-19.04-9.23-9.52-9.23-19.04 9.23-9.52 9.23-19.04-9.23-9.52-9.23-19.04 9.23-9.52 9.23-19.05-9.23-9.52-9.23-19.04 9.23-9.52 9.23-19.05-9.23-9.52-9.23-19.05 9.23-9.52 9.23-19.04-9.23-9.52-9.23-19.04 9.23-9.52 9.23-19.05-9.23-9.52-9.23-19.04 9.23-9.52 9.23-19.05-9.23-9.52-9.23-19.05 9.23-9.52 9.23-19.05-9.23-9.52-9.23-19.04 9.23-9.53 9.23-19.05-9.23-9.53-9.23-19.05 9.23-9.53 9.23-19.05-9.23-9.53-9.23-19.05"/><path id="_パス_32380" data-name="パス 32380" class="cls-14" d="M833.89 800.29c0-9.52 9.23-9.52 9.23-19.04s-9.23-9.52-9.23-19.04 9.23-9.52 9.23-19.04-9.23-9.52-9.23-19.04 9.23-9.52 9.23-19.05-9.23-9.52-9.23-19.04 9.23-9.52 9.23-19.04-9.23-9.52-9.23-19.04 9.23-9.52 9.23-19.04-9.23-9.52-9.23-19.04 9.23-9.52 9.23-19.04-9.23-9.52-9.23-19.04 9.23-9.52 9.23-19.05-9.23-9.52-9.23-19.04 9.23-9.52 9.23-19.04-9.23-9.52-9.23-19.04 9.23-9.52 9.23-19.04-9.23-9.52-9.23-19.04 9.23-9.52 9.23-19.05-9.23-9.52-9.23-19.04 9.23-9.52 9.23-19.05-9.23-9.52-9.23-19.05 9.23-9.52 9.23-19.04-9.23-9.52-9.23-19.04 9.23-9.52 9.23-19.05-9.23-9.52-9.23-19.04 9.23-9.52 9.23-19.05-9.23-9.52-9.23-19.05 9.23-9.52 9.23-19.05-9.23-9.52-9.23-19.04 9.23-9.53 9.23-19.05-9.23-9.53-9.23-19.05 9.23-9.53 9.23-19.05-9.23-9.53-9.23-19.05"/><path id="_パス_32381" data-name="パス 32381" class="cls-14" d="M862.22 800.29c0-9.52 9.23-9.52 9.23-19.04s-9.23-9.52-9.23-19.04 9.23-9.52 9.23-19.04-9.23-9.52-9.23-19.04 9.23-9.52 9.23-19.05-9.23-9.52-9.23-19.04 9.23-9.52 9.23-19.04-9.23-9.52-9.23-19.04 9.23-9.52 9.23-19.04-9.23-9.52-9.23-19.04 9.23-9.52 9.23-19.04-9.23-9.52-9.23-19.04 9.23-9.52 9.23-19.05-9.23-9.52-9.23-19.04 9.23-9.52 9.23-19.04-9.23-9.52-9.23-19.04 9.23-9.52 9.23-19.04-9.23-9.52-9.23-19.04 9.23-9.52 9.23-19.05-9.23-9.52-9.23-19.04 9.23-9.52 9.23-19.05-9.23-9.52-9.23-19.05 9.23-9.52 9.23-19.04-9.23-9.52-9.23-19.04 9.23-9.52 9.23-19.05-9.23-9.52-9.23-19.04 9.23-9.52 9.23-19.05-9.23-9.52-9.23-19.05 9.23-9.52 9.23-19.05-9.23-9.52-9.23-19.04 9.23-9.53 9.23-19.05-9.23-9.53-9.23-19.05 9.23-9.53 9.23-19.05-9.23-9.53-9.23-19.05"/><path id="_パス_32382" data-name="パス 32382" class="cls-14" d="M890.55 800.29c0-9.52 9.23-9.52 9.23-19.04s-9.23-9.52-9.23-19.04 9.23-9.52 9.23-19.04-9.23-9.52-9.23-19.04 9.23-9.52 9.23-19.05-9.23-9.52-9.23-19.04 9.23-9.52 9.23-19.04-9.23-9.52-9.23-19.04 9.23-9.52 9.23-19.04-9.23-9.52-9.23-19.04 9.23-9.52 9.23-19.04-9.23-9.52-9.23-19.04 9.23-9.52 9.23-19.05-9.23-9.52-9.23-19.04 9.23-9.52 9.23-19.04-9.23-9.52-9.23-19.04 9.23-9.52 9.23-19.04-9.23-9.52-9.23-19.04 9.23-9.52 9.23-19.05-9.23-9.52-9.23-19.04 9.23-9.52 9.23-19.05-9.23-9.52-9.23-19.05 9.23-9.52 9.23-19.04-9.23-9.52-9.23-19.04 9.23-9.52 9.23-19.05-9.23-9.52-9.23-19.04 9.23-9.52 9.23-19.05-9.23-9.52-9.23-19.05 9.23-9.52 9.23-19.05-9.23-9.52-9.23-19.04 9.23-9.53 9.23-19.05-9.23-9.53-9.23-19.05 9.23-9.53 9.23-19.05-9.23-9.53-9.23-19.05"/><path id="_パス_32383" data-name="パス 32383" class="cls-14" d="M918.88 800.29c0-9.52 9.23-9.52 9.23-19.04s-9.23-9.52-9.23-19.04 9.23-9.52 9.23-19.04-9.23-9.52-9.23-19.04 9.23-9.52 9.23-19.05-9.23-9.52-9.23-19.04 9.23-9.52 9.23-19.04-9.23-9.52-9.23-19.04 9.23-9.52 9.23-19.04-9.23-9.52-9.23-19.04 9.23-9.52 9.23-19.04-9.23-9.52-9.23-19.04 9.23-9.52 9.23-19.05-9.23-9.52-9.23-19.04 9.23-9.52 9.23-19.04-9.23-9.52-9.23-19.04 9.23-9.52 9.23-19.04-9.23-9.52-9.23-19.04 9.23-9.52 9.23-19.05-9.23-9.52-9.23-19.04 9.23-9.52 9.23-19.05-9.23-9.52-9.23-19.05 9.23-9.52 9.23-19.04-9.23-9.52-9.23-19.04 9.23-9.52 9.23-19.05-9.23-9.52-9.23-19.04 9.23-9.52 9.23-19.05-9.23-9.52-9.23-19.05 9.23-9.52 9.23-19.05-9.23-9.52-9.23-19.04 9.23-9.53 9.23-19.05-9.23-9.53-9.23-19.05 9.23-9.53 9.23-19.05-9.23-9.53-9.23-19.05"/><path id="_パス_32384" data-name="パス 32384" class="cls-14" d="M947.2 800.29c0-9.52 9.23-9.52 9.23-19.04s-9.23-9.52-9.23-19.04 9.23-9.52 9.23-19.04-9.23-9.52-9.23-19.04 9.23-9.52 9.23-19.05-9.23-9.52-9.23-19.04 9.23-9.52 9.23-19.04-9.23-9.52-9.23-19.04 9.23-9.52 9.23-19.04-9.23-9.52-9.23-19.04 9.23-9.52 9.23-19.04-9.23-9.52-9.23-19.04 9.23-9.52 9.23-19.05-9.23-9.52-9.23-19.04 9.23-9.52 9.23-19.04-9.23-9.52-9.23-19.04 9.23-9.52 9.23-19.04-9.23-9.52-9.23-19.04 9.23-9.52 9.23-19.05-9.23-9.52-9.23-19.04 9.23-9.52 9.23-19.05-9.23-9.52-9.23-19.05 9.23-9.52 9.23-19.04-9.23-9.52-9.23-19.04 9.23-9.52 9.23-19.05-9.23-9.52-9.23-19.04 9.23-9.52 9.23-19.05-9.23-9.52-9.23-19.05 9.23-9.52 9.23-19.05-9.23-9.52-9.23-19.04 9.23-9.53 9.23-19.05-9.23-9.53-9.23-19.05 9.23-9.53 9.23-19.05-9.23-9.53-9.23-19.05"/><path id="_パス_32385" data-name="パス 32385" class="cls-14" d="M975.53 800.29c0-9.52 9.23-9.52 9.23-19.04s-9.23-9.52-9.23-19.04 9.23-9.52 9.23-19.04-9.23-9.52-9.23-19.04 9.23-9.52 9.23-19.05-9.23-9.52-9.23-19.04 9.23-9.52 9.23-19.04-9.23-9.52-9.23-19.04 9.23-9.52 9.23-19.04-9.23-9.52-9.23-19.04 9.23-9.52 9.23-19.04-9.23-9.52-9.23-19.04 9.23-9.52 9.23-19.05-9.23-9.52-9.23-19.04 9.23-9.52 9.23-19.04-9.23-9.52-9.23-19.04 9.23-9.52 9.23-19.04-9.23-9.52-9.23-19.04 9.23-9.52 9.23-19.05-9.23-9.52-9.23-19.04 9.23-9.52 9.23-19.05-9.23-9.52-9.23-19.05 9.23-9.52 9.23-19.04-9.23-9.52-9.23-19.04 9.23-9.52 9.23-19.05-9.23-9.52-9.23-19.04 9.23-9.52 9.23-19.05-9.23-9.52-9.23-19.05 9.23-9.52 9.23-19.05-9.23-9.52-9.23-19.04 9.23-9.53 9.23-19.05-9.23-9.53-9.23-19.05 9.23-9.53 9.23-19.05-9.23-9.53-9.23-19.05"/><path id="_パス_32386" data-name="パス 32386" class="cls-14" d="M1003.86 800.29c0-9.52 9.23-9.52 9.23-19.04s-9.23-9.52-9.23-19.04 9.23-9.52 9.23-19.04-9.23-9.52-9.23-19.04 9.23-9.52 9.23-19.05-9.23-9.52-9.23-19.04 9.23-9.52 9.23-19.04-9.23-9.52-9.23-19.04 9.23-9.52 9.23-19.04-9.23-9.52-9.23-19.04 9.23-9.52 9.23-19.04-9.23-9.52-9.23-19.04 9.23-9.52 9.23-19.05-9.23-9.52-9.23-19.04 9.23-9.52 9.23-19.04-9.23-9.52-9.23-19.04 9.23-9.52 9.23-19.04-9.23-9.52-9.23-19.04 9.23-9.52 9.23-19.05-9.23-9.52-9.23-19.04 9.23-9.52 9.23-19.05-9.23-9.52-9.23-19.05 9.23-9.52 9.23-19.04-9.23-9.52-9.23-19.04 9.23-9.52 9.23-19.05-9.23-9.52-9.23-19.04 9.23-9.52 9.23-19.05-9.23-9.52-9.23-19.05 9.23-9.52 9.23-19.05-9.23-9.52-9.23-19.04 9.23-9.53 9.23-19.05-9.23-9.53-9.23-19.05 9.23-9.53 9.23-19.05-9.23-9.53-9.23-19.05"/><path id="_パス_32387" data-name="パス 32387" class="cls-14" d="M1032.19 800.29c0-9.52 9.23-9.52 9.23-19.04s-9.23-9.52-9.23-19.04 9.23-9.52 9.23-19.04-9.23-9.52-9.23-19.04 9.23-9.52 9.23-19.05-9.23-9.52-9.23-19.04 9.23-9.52 9.23-19.04-9.23-9.52-9.23-19.04 9.23-9.52 9.23-19.04-9.23-9.52-9.23-19.04 9.23-9.52 9.23-19.04-9.23-9.52-9.23-19.04 9.23-9.52 9.23-19.05-9.23-9.52-9.23-19.04 9.23-9.52 9.23-19.04-9.23-9.52-9.23-19.04 9.23-9.52 9.23-19.04-9.23-9.52-9.23-19.04 9.23-9.52 9.23-19.05-9.23-9.52-9.23-19.04 9.23-9.52 9.23-19.05-9.23-9.52-9.23-19.05 9.23-9.52 9.23-19.04-9.23-9.52-9.23-19.04 9.23-9.52 9.23-19.05-9.23-9.52-9.23-19.04 9.23-9.52 9.23-19.05-9.23-9.52-9.23-19.05 9.23-9.52 9.23-19.05-9.23-9.52-9.23-19.04 9.23-9.53 9.23-19.05-9.23-9.53-9.23-19.05 9.23-9.53 9.23-19.05-9.23-9.53-9.23-19.05"/></g></g><g clip-path="url(#clippath-3)" id="_グループ_4307" data-name="グループ 4307"><g id="_グループ_4306" data-name="グループ 4306"><path id="_長方形_5583" data-name="長方形 5583" class="cls-39" d="M806.11 379.77h28.24v28.24h-28.24z"/></g></g><path id="_長方形_5585" data-name="長方形 5585" class="cls-38" d="M825.91 351.53h8.44v27.91h-8.44z"/><path id="_長方形_5586" data-name="長方形 5586" class="cls-39" d="M825.91 323.29h8.44v28.24h-8.44z"/><path id="_長方形_5587" data-name="長方形 5587" class="cls-38" d="M825.91 295.05h8.44v28.24h-8.44z"/><path id="_長方形_5588" data-name="長方形 5588" class="cls-39" d="M825.91 266.81h8.44v28.24h-8.44z"/><path id="_長方形_5589" data-name="長方形 5589" class="cls-38" d="M825.91 238.57h8.44v28.24h-8.44z"/><path id="_長方形_5590" data-name="長方形 5590" class="cls-39" d="M825.91 210.33h8.44v28.24h-8.44z"/><path id="_長方形_5591" data-name="長方形 5591" class="cls-38" d="M825.91 182.09h8.44v28.24h-8.44z"/><path id="_長方形_5592" data-name="長方形 5592" class="cls-39" d="M825.91 153.85h8.44v28.24h-8.44z"/><path id="_長方形_5593" data-name="長方形 5593" class="cls-38" d="M825.91 125.61h8.44v28.24h-8.44z"/><path id="_長方形_5594" data-name="長方形 5594" class="cls-39" d="M825.91 97.37h8.44v28.24h-8.44z"/><path id="_長方形_5595" data-name="長方形 5595" class="cls-38" d="M825.91 69.13h8.44v28.24h-8.44z"/><path id="_長方形_5596" data-name="長方形 5596" class="cls-39" d="M825.91 40.89h8.44v28.24h-8.44z"/><path id="_長方形_5597" data-name="長方形 5597" class="cls-38" d="M825.91 12.65h8.44v28.24h-8.44z"/><path id="_長方形_5598" data-name="長方形 5598" class="cls-39" d="M825.91-.61h8.44v13.26h-8.44z"/><g clip-path="url(#clippath-4)" id="_グループ_4309" data-name="グループ 4309"><g id="_グループ_4308" data-name="グループ 4308"><path id="_長方形_5599" data-name="長方形 5599" class="cls-38" d="M834.35 379.77h28.24v28.24h-28.24z"/></g></g><path id="_長方形_5601" data-name="長方形 5601" class="cls-39" d="M834.35 351.53h28.24v27.91h-28.24z"/><path id="_長方形_5602" data-name="長方形 5602" class="cls-38" d="M834.35 323.29h28.24v28.24h-28.24z"/><path id="_長方形_5603" data-name="長方形 5603" class="cls-39" d="M834.35 295.05h28.24v28.24h-28.24z"/><path id="_長方形_5604" data-name="長方形 5604" class="cls-38" d="M834.35 266.81h28.24v28.24h-28.24z"/><path id="_長方形_5605" data-name="長方形 5605" class="cls-39" d="M834.35 238.57h28.24v28.24h-28.24z"/><path id="_長方形_5606" data-name="長方形 5606" class="cls-38" d="M834.35 210.33h28.24v28.24h-28.24z"/><path id="_長方形_5607" data-name="長方形 5607" class="cls-39" d="M834.35 182.09h28.24v28.24h-28.24z"/><path id="_長方形_5608" data-name="長方形 5608" class="cls-38" d="M834.35 153.85h28.24v28.24h-28.24z"/><path id="_長方形_5609" data-name="長方形 5609" class="cls-39" d="M834.35 125.61h28.24v28.24h-28.24z"/><path id="_長方形_5610" data-name="長方形 5610" class="cls-38" d="M834.35 97.37h28.24v28.24h-28.24z"/><path id="_長方形_5611" data-name="長方形 5611" class="cls-39" d="M834.35 69.13h28.24v28.24h-28.24z"/><path id="_長方形_5612" data-name="長方形 5612" class="cls-38" d="M834.35 40.89h28.24v28.24h-28.24z"/><path id="_長方形_5613" data-name="長方形 5613" class="cls-39" d="M834.35 12.65h28.24v28.24h-28.24z"/><path id="_長方形_5614" data-name="長方形 5614" class="cls-38" d="M834.35-.61h28.24v13.26h-28.24z"/><g clip-path="url(#clippath-5)" id="_グループ_4311" data-name="グループ 4311"><g id="_グループ_4310" data-name="グループ 4310"><path id="_長方形_5615" data-name="長方形 5615" class="cls-39" d="M862.59 379.77h28.24v28.24h-28.24z"/></g></g><path id="_長方形_5617" data-name="長方形 5617" class="cls-38" d="M862.59 351.53h28.24v27.91h-28.24z"/><path id="_長方形_5618" data-name="長方形 5618" class="cls-39" d="M862.59 323.29h28.24v28.24h-28.24z"/><path id="_長方形_5619" data-name="長方形 5619" class="cls-38" d="M862.59 295.05h28.24v28.24h-28.24z"/><path id="_長方形_5620" data-name="長方形 5620" class="cls-39" d="M862.59 266.81h28.24v28.24h-28.24z"/><path id="_長方形_5621" data-name="長方形 5621" class="cls-38" d="M862.59 238.57h28.24v28.24h-28.24z"/><path id="_長方形_5622" data-name="長方形 5622" class="cls-39" d="M862.59 210.33h28.24v28.24h-28.24z"/><path id="_長方形_5623" data-name="長方形 5623" class="cls-38" d="M862.59 182.09h28.24v28.24h-28.24z"/><path id="_長方形_5624" data-name="長方形 5624" class="cls-39" d="M862.59 153.85h28.24v28.24h-28.24z"/><path id="_長方形_5625" data-name="長方形 5625" class="cls-38" d="M862.59 125.61h28.24v28.24h-28.24z"/><path id="_長方形_5626" data-name="長方形 5626" class="cls-39" d="M862.59 97.37h28.24v28.24h-28.24z"/><path id="_長方形_5627" data-name="長方形 5627" class="cls-38" d="M862.59 69.13h28.24v28.24h-28.24z"/><path id="_長方形_5628" data-name="長方形 5628" class="cls-39" d="M862.59 40.89h28.24v28.24h-28.24z"/><path id="_長方形_5629" data-name="長方形 5629" class="cls-38" d="M862.59 12.65h28.24v28.24h-28.24z"/><path id="_長方形_5630" data-name="長方形 5630" class="cls-39" d="M862.59-.61h28.24v13.26h-28.24z"/><g clip-path="url(#clippath-6)" id="_グループ_4313" data-name="グループ 4313"><g id="_グループ_4312" data-name="グループ 4312"><path id="_長方形_5631" data-name="長方形 5631" class="cls-38" d="M890.83 379.77h28.24v28.24h-28.24z"/></g></g><path id="_長方形_5633" data-name="長方形 5633" class="cls-39" d="M890.83 351.53h28.24v27.91h-28.24z"/><path id="_長方形_5634" data-name="長方形 5634" class="cls-38" d="M890.83 323.29h28.24v28.24h-28.24z"/><path id="_長方形_5635" data-name="長方形 5635" class="cls-39" d="M890.83 295.05h28.24v28.24h-28.24z"/><path id="_長方形_5636" data-name="長方形 5636" class="cls-38" d="M890.83 266.81h28.24v28.24h-28.24z"/><path id="_長方形_5637" data-name="長方形 5637" class="cls-39" d="M890.83 238.57h28.24v28.24h-28.24z"/><path id="_長方形_5638" data-name="長方形 5638" class="cls-38" d="M890.83 210.33h28.24v28.24h-28.24z"/><path id="_長方形_5639" data-name="長方形 5639" class="cls-39" d="M890.83 182.09h28.24v28.24h-28.24z"/><path id="_長方形_5640" data-name="長方形 5640" class="cls-38" d="M890.83 153.85h28.24v28.24h-28.24z"/><path id="_長方形_5641" data-name="長方形 5641" class="cls-39" d="M890.83 125.61h28.24v28.24h-28.24z"/><path id="_長方形_5642" data-name="長方形 5642" class="cls-38" d="M890.83 97.37h28.24v28.24h-28.24z"/><path id="_長方形_5643" data-name="長方形 5643" class="cls-39" d="M890.83 69.13h28.24v28.24h-28.24z"/><path id="_長方形_5644" data-name="長方形 5644" class="cls-38" d="M890.83 40.89h28.24v28.24h-28.24z"/><path id="_長方形_5645" data-name="長方形 5645" class="cls-39" d="M890.83 12.65h28.24v28.24h-28.24z"/><path id="_長方形_5646" data-name="長方形 5646" class="cls-38" d="M890.83-.61h28.24v13.26h-28.24z"/><g clip-path="url(#clippath-7)" id="_グループ_4315" data-name="グループ 4315"><g id="_グループ_4314" data-name="グループ 4314"><path id="_長方形_5647" data-name="長方形 5647" class="cls-39" d="M919.07 379.77h28.24v28.24h-28.24z"/></g></g><path id="_長方形_5649" data-name="長方形 5649" class="cls-38" d="M919.07 351.53h28.24v27.91h-28.24z"/><path id="_長方形_5650" data-name="長方形 5650" class="cls-39" d="M919.07 323.29h28.24v28.24h-28.24z"/><path id="_長方形_5651" data-name="長方形 5651" class="cls-38" d="M919.07 295.05h28.24v28.24h-28.24z"/><path id="_長方形_5652" data-name="長方形 5652" class="cls-39" d="M919.07 266.81h28.24v28.24h-28.24z"/><path id="_長方形_5653" data-name="長方形 5653" class="cls-38" d="M919.07 238.57h28.24v28.24h-28.24z"/><path id="_長方形_5654" data-name="長方形 5654" class="cls-39" d="M919.07 210.33h28.24v28.24h-28.24z"/><path id="_長方形_5655" data-name="長方形 5655" class="cls-38" d="M919.07 182.09h28.24v28.24h-28.24z"/><path id="_長方形_5656" data-name="長方形 5656" class="cls-39" d="M919.07 153.85h28.24v28.24h-28.24z"/><path id="_長方形_5657" data-name="長方形 5657" class="cls-38" d="M919.07 125.61h28.24v28.24h-28.24z"/><path id="_長方形_5658" data-name="長方形 5658" class="cls-39" d="M919.07 97.37h28.24v28.24h-28.24z"/><path id="_長方形_5659" data-name="長方形 5659" class="cls-38" d="M919.07 69.13h28.24v28.24h-28.24z"/><path id="_長方形_5660" data-name="長方形 5660" class="cls-39" d="M919.07 40.89h28.24v28.24h-28.24z"/><path id="_長方形_5661" data-name="長方形 5661" class="cls-38" d="M919.07 12.65h28.24v28.24h-28.24z"/><path id="_長方形_5662" data-name="長方形 5662" class="cls-39" d="M919.07-.61h28.24v13.26h-28.24z"/><g clip-path="url(#clippath-8)" id="_グループ_4317" data-name="グループ 4317"><g id="_グループ_4316" data-name="グループ 4316"><path id="_長方形_5663" data-name="長方形 5663" class="cls-38" d="M947.31 379.77h28.24v28.24h-28.24z"/></g></g><path id="_長方形_5665" data-name="長方形 5665" class="cls-39" d="M947.31 351.53h28.24v27.91h-28.24z"/><path id="_長方形_5666" data-name="長方形 5666" class="cls-38" d="M947.31 323.29h28.24v28.24h-28.24z"/><path id="_長方形_5667" data-name="長方形 5667" class="cls-39" d="M947.31 295.05h28.24v28.24h-28.24z"/><path id="_長方形_5668" data-name="長方形 5668" class="cls-38" d="M947.31 266.81h28.24v28.24h-28.24z"/><path id="_長方形_5669" data-name="長方形 5669" class="cls-39" d="M947.31 238.57h28.24v28.24h-28.24z"/><path id="_長方形_5670" data-name="長方形 5670" class="cls-38" d="M947.31 210.33h28.24v28.24h-28.24z"/><path id="_長方形_5671" data-name="長方形 5671" class="cls-39" d="M947.31 182.09h28.24v28.24h-28.24z"/><path id="_長方形_5672" data-name="長方形 5672" class="cls-38" d="M947.31 153.85h28.24v28.24h-28.24z"/><path id="_長方形_5673" data-name="長方形 5673" class="cls-39" d="M947.31 125.61h28.24v28.24h-28.24z"/><path id="_長方形_5674" data-name="長方形 5674" class="cls-38" d="M947.31 97.37h28.24v28.24h-28.24z"/><path id="_長方形_5675" data-name="長方形 5675" class="cls-39" d="M947.31 69.13h28.24v28.24h-28.24z"/><path id="_長方形_5676" data-name="長方形 5676" class="cls-38" d="M947.31 40.89h28.24v28.24h-28.24z"/><path id="_長方形_5677" data-name="長方形 5677" class="cls-39" d="M947.31 12.65h28.24v28.24h-28.24z"/><path id="_長方形_5678" data-name="長方形 5678" class="cls-38" d="M947.31-.61h28.24v13.26h-28.24z"/><g clip-path="url(#clippath-9)" id="_グループ_4319" data-name="グループ 4319"><g id="_グループ_4318" data-name="グループ 4318"><path id="_長方形_5679" data-name="長方形 5679" class="cls-39" d="M975.55 379.77h28.24v28.24h-28.24z"/></g></g><path id="_長方形_5681" data-name="長方形 5681" class="cls-38" d="M975.55 351.53h28.24v27.91h-28.24z"/><path id="_長方形_5682" data-name="長方形 5682" class="cls-39" d="M975.55 323.29h28.24v28.24h-28.24z"/><path id="_長方形_5683" data-name="長方形 5683" class="cls-38" d="M975.55 295.05h28.24v28.24h-28.24z"/><path id="_長方形_5684" data-name="長方形 5684" class="cls-39" d="M975.55 266.81h28.24v28.24h-28.24z"/><path id="_長方形_5685" data-name="長方形 5685" class="cls-38" d="M975.55 238.57h28.24v28.24h-28.24z"/><path id="_長方形_5686" data-name="長方形 5686" class="cls-39" d="M975.55 210.33h28.24v28.24h-28.24z"/><path id="_長方形_5687" data-name="長方形 5687" class="cls-38" d="M975.55 182.09h28.24v28.24h-28.24z"/><path id="_長方形_5688" data-name="長方形 5688" class="cls-39" d="M975.55 153.85h28.24v28.24h-28.24z"/><path id="_長方形_5689" data-name="長方形 5689" class="cls-38" d="M975.55 125.61h28.24v28.24h-28.24z"/><path id="_長方形_5690" data-name="長方形 5690" class="cls-39" d="M975.55 97.37h28.24v28.24h-28.24z"/><path id="_長方形_5691" data-name="長方形 5691" class="cls-38" d="M975.55 69.13h28.24v28.24h-28.24z"/><path id="_長方形_5692" data-name="長方形 5692" class="cls-39" d="M975.55 40.89h28.24v28.24h-28.24z"/><path id="_長方形_5693" data-name="長方形 5693" class="cls-38" d="M975.55 12.65h28.24v28.24h-28.24z"/><path id="_長方形_5694" data-name="長方形 5694" class="cls-39" d="M975.55-.61h28.24v13.26h-28.24z"/><g clip-path="url(#clippath-10)" id="_グループ_4321" data-name="グループ 4321"><g id="_グループ_4320" data-name="グループ 4320"><path id="_長方形_5695" data-name="長方形 5695" class="cls-38" d="M1003.79 379.77h28.24v28.24h-28.24z"/></g></g><path id="_長方形_5697" data-name="長方形 5697" class="cls-39" d="M1003.79 351.53h28.24v27.91h-28.24z"/><path id="_長方形_5698" data-name="長方形 5698" class="cls-38" d="M1003.79 323.29h28.24v28.24h-28.24z"/><path id="_長方形_5699" data-name="長方形 5699" class="cls-39" d="M1003.79 295.05h28.24v28.24h-28.24z"/><path id="_長方形_5700" data-name="長方形 5700" class="cls-38" d="M1003.79 266.81h28.24v28.24h-28.24z"/><path id="_長方形_5701" data-name="長方形 5701" class="cls-39" d="M1003.79 238.57h28.24v28.24h-28.24z"/><path id="_長方形_5702" data-name="長方形 5702" class="cls-38" d="M1003.79 210.33h28.24v28.24h-28.24z"/><path id="_長方形_5703" data-name="長方形 5703" class="cls-39" d="M1003.79 182.09h28.24v28.24h-28.24z"/><path id="_長方形_5704" data-name="長方形 5704" class="cls-38" d="M1003.79 153.85h28.24v28.24h-28.24z"/><path id="_長方形_5705" data-name="長方形 5705" class="cls-39" d="M1003.79 125.61h28.24v28.24h-28.24z"/><path id="_長方形_5706" data-name="長方形 5706" class="cls-38" d="M1003.79 97.37h28.24v28.24h-28.24z"/><path id="_長方形_5707" data-name="長方形 5707" class="cls-39" d="M1003.79 69.13h28.24v28.24h-28.24z"/><path id="_長方形_5708" data-name="長方形 5708" class="cls-38" d="M1003.79 40.89h28.24v28.24h-28.24z"/><path id="_長方形_5709" data-name="長方形 5709" class="cls-39" d="M1003.79 12.65h28.24v28.24h-28.24z"/><path id="_長方形_5710" data-name="長方形 5710" class="cls-38" d="M1003.79-.61h28.24v13.26h-28.24z"/><g clip-path="url(#clippath-11)" id="_グループ_4323" data-name="グループ 4323"><g id="_グループ_4322" data-name="グループ 4322"><path id="_長方形_5711" data-name="長方形 5711" class="cls-39" d="M1032.03 379.77h28.24v28.24h-28.24z"/></g></g><path id="_長方形_5713" data-name="長方形 5713" class="cls-38" d="M1032.03 351.53h28.24v27.91h-28.24z"/><path id="_長方形_5714" data-name="長方形 5714" class="cls-39" d="M1032.03 323.29h28.24v28.24h-28.24z"/><path id="_長方形_5715" data-name="長方形 5715" class="cls-38" d="M1032.03 295.05h28.24v28.24h-28.24z"/><path id="_長方形_5716" data-name="長方形 5716" class="cls-39" d="M1032.03 266.81h28.24v28.24h-28.24z"/><path id="_長方形_5717" data-name="長方形 5717" class="cls-38" d="M1032.03 238.57h28.24v28.24h-28.24z"/><path id="_長方形_5718" data-name="長方形 5718" class="cls-39" d="M1032.03 210.33h28.24v28.24h-28.24z"/><path id="_長方形_5719" data-name="長方形 5719" class="cls-38" d="M1032.03 182.09h28.24v28.24h-28.24z"/><path id="_長方形_5720" data-name="長方形 5720" class="cls-39" d="M1032.03 153.85h28.24v28.24h-28.24z"/><path id="_長方形_5721" data-name="長方形 5721" class="cls-38" d="M1032.03 125.61h28.24v28.24h-28.24z"/><path id="_長方形_5722" data-name="長方形 5722" class="cls-39" d="M1032.03 97.37h28.24v28.24h-28.24z"/><path id="_長方形_5723" data-name="長方形 5723" class="cls-38" d="M1032.03 69.13h28.24v28.24h-28.24z"/><path id="_長方形_5724" data-name="長方形 5724" class="cls-39" d="M1032.03 40.89h28.24v28.24h-28.24z"/><path id="_長方形_5725" data-name="長方形 5725" class="cls-38" d="M1032.03 12.65h28.24v28.24h-28.24z"/><path id="_長方形_5726" data-name="長方形 5726" class="cls-39" d="M1032.03-.61h28.24v13.26h-28.24z"/><g clip-path="url(#clippath-12)" id="_グループ_4325" data-name="グループ 4325"><g id="_グループ_4324" data-name="グループ 4324"><path id="_長方形_5727" data-name="長方形 5727" class="cls-38" d="M1060.27 379.77h28.24v28.24h-28.24z"/></g></g><path id="_長方形_5729" data-name="長方形 5729" class="cls-39" d="M1060.27 351.53h28.24v27.91h-28.24z"/><path id="_長方形_5730" data-name="長方形 5730" class="cls-38" d="M1060.27 323.29h28.24v28.24h-28.24z"/><path id="_長方形_5731" data-name="長方形 5731" class="cls-39" d="M1060.27 295.05h28.24v28.24h-28.24z"/><path id="_長方形_5732" data-name="長方形 5732" class="cls-38" d="M1060.27 266.81h28.24v28.24h-28.24z"/><path id="_長方形_5733" data-name="長方形 5733" class="cls-39" d="M1060.27 238.57h28.24v28.24h-28.24z"/><path id="_長方形_5734" data-name="長方形 5734" class="cls-38" d="M1060.27 210.33h28.24v28.24h-28.24z"/><path id="_長方形_5735" data-name="長方形 5735" class="cls-39" d="M1060.27 182.09h28.24v28.24h-28.24z"/><path id="_長方形_5736" data-name="長方形 5736" class="cls-38" d="M1060.27 153.85h28.24v28.24h-28.24z"/><path id="_長方形_5737" data-name="長方形 5737" class="cls-39" d="M1060.27 125.61h28.24v28.24h-28.24z"/><path id="_長方形_5738" data-name="長方形 5738" class="cls-38" d="M1060.27 97.37h28.24v28.24h-28.24z"/><path id="_長方形_5739" data-name="長方形 5739" class="cls-39" d="M1060.27 69.13h28.24v28.24h-28.24z"/><path id="_長方形_5740" data-name="長方形 5740" class="cls-38" d="M1060.27 40.89h28.24v28.24h-28.24z"/><path id="_長方形_5741" data-name="長方形 5741" class="cls-39" d="M1060.27 12.65h28.24v28.24h-28.24z"/><path id="_長方形_5742" data-name="長方形 5742" class="cls-38" d="M1060.27-.61h28.24v13.26h-28.24z"/><g clip-path="url(#clippath-13)" id="_グループ_4327" data-name="グループ 4327"><g id="_グループ_4326" data-name="グループ 4326"><path id="_長方形_5743" data-name="長方形 5743" class="cls-39" d="M1088.51 379.77h28.24v28.24h-28.24z"/></g></g><path id="_長方形_5745" data-name="長方形 5745" class="cls-38" d="M1088.51 351.53h28.24v27.91h-28.24z"/><path id="_長方形_5746" data-name="長方形 5746" class="cls-39" d="M1088.51 323.29h28.24v28.24h-28.24z"/><path id="_長方形_5747" data-name="長方形 5747" class="cls-38" d="M1088.51 295.05h28.24v28.24h-28.24z"/><path id="_長方形_5748" data-name="長方形 5748" class="cls-39" d="M1088.51 266.81h28.24v28.24h-28.24z"/><path id="_長方形_5749" data-name="長方形 5749" class="cls-38" d="M1088.51 238.57h28.24v28.24h-28.24z"/><path id="_長方形_5750" data-name="長方形 5750" class="cls-39" d="M1088.51 210.33h28.24v28.24h-28.24z"/><path id="_長方形_5751" data-name="長方形 5751" class="cls-38" d="M1088.51 182.09h28.24v28.24h-28.24z"/><path id="_長方形_5752" data-name="長方形 5752" class="cls-39" d="M1088.51 153.85h28.24v28.24h-28.24z"/><path id="_長方形_5753" data-name="長方形 5753" class="cls-38" d="M1088.51 125.61h28.24v28.24h-28.24z"/><path id="_長方形_5754" data-name="長方形 5754" class="cls-39" d="M1088.51 97.37h28.24v28.24h-28.24z"/><path id="_長方形_5755" data-name="長方形 5755" class="cls-38" d="M1088.51 69.13h28.24v28.24h-28.24z"/><path id="_長方形_5756" data-name="長方形 5756" class="cls-39" d="M1088.51 40.89h28.24v28.24h-28.24z"/><path id="_長方形_5757" data-name="長方形 5757" class="cls-38" d="M1088.51 12.65h28.24v28.24h-28.24z"/><path id="_長方形_5758" data-name="長方形 5758" class="cls-39" d="M1088.51-.61h28.24v13.26h-28.24z"/><g clip-path="url(#clippath-14)" id="_グループ_4329" data-name="グループ 4329"><g id="_グループ_4328" data-name="グループ 4328"><path id="_長方形_5759" data-name="長方形 5759" class="cls-38" d="M1116.75 379.77h28.24v28.24h-28.24z"/></g></g><path id="_長方形_5761" data-name="長方形 5761" class="cls-39" d="M1116.75 351.53h28.24v27.91h-28.24z"/><path id="_長方形_5762" data-name="長方形 5762" class="cls-38" d="M1116.75 323.29h28.24v28.24h-28.24z"/><path id="_長方形_5763" data-name="長方形 5763" class="cls-39" d="M1116.75 295.05h28.24v28.24h-28.24z"/><path id="_長方形_5764" data-name="長方形 5764" class="cls-38" d="M1116.75 266.81h28.24v28.24h-28.24z"/><path id="_長方形_5765" data-name="長方形 5765" class="cls-39" d="M1116.75 238.57h28.24v28.24h-28.24z"/><path id="_長方形_5766" data-name="長方形 5766" class="cls-38" d="M1116.75 210.33h28.24v28.24h-28.24z"/><path id="_長方形_5767" data-name="長方形 5767" class="cls-39" d="M1116.75 182.09h28.24v28.24h-28.24z"/><path id="_長方形_5768" data-name="長方形 5768" class="cls-38" d="M1116.75 153.85h28.24v28.24h-28.24z"/><path id="_長方形_5769" data-name="長方形 5769" class="cls-39" d="M1116.75 125.61h28.24v28.24h-28.24z"/><path id="_長方形_5770" data-name="長方形 5770" class="cls-38" d="M1116.75 97.37h28.24v28.24h-28.24z"/><path id="_長方形_5771" data-name="長方形 5771" class="cls-39" d="M1116.75 69.13h28.24v28.24h-28.24z"/><path id="_長方形_5772" data-name="長方形 5772" class="cls-38" d="M1116.75 40.89h28.24v28.24h-28.24z"/><path id="_長方形_5773" data-name="長方形 5773" class="cls-39" d="M1116.75 12.65h28.24v28.24h-28.24z"/><path id="_長方形_5774" data-name="長方形 5774" class="cls-38" d="M1116.75-.61h28.24v13.26h-28.24z"/><g clip-path="url(#clippath-15)" id="_グループ_4331" data-name="グループ 4331"><g id="_グループ_4330" data-name="グループ 4330"><path id="_長方形_5775" data-name="長方形 5775" class="cls-39" d="M1144.99 379.77h28.24v28.24h-28.24z"/></g></g><path id="_長方形_5777" data-name="長方形 5777" class="cls-38" d="M1144.99 351.53h28.24v27.91h-28.24z"/><path id="_長方形_5778" data-name="長方形 5778" class="cls-39" d="M1144.99 323.29h28.24v28.24h-28.24z"/><path id="_長方形_5779" data-name="長方形 5779" class="cls-38" d="M1144.99 295.05h28.24v28.24h-28.24z"/><path id="_長方形_5780" data-name="長方形 5780" class="cls-39" d="M1144.99 266.81h28.24v28.24h-28.24z"/><path id="_長方形_5781" data-name="長方形 5781" class="cls-38" d="M1144.99 238.57h28.24v28.24h-28.24z"/><path id="_長方形_5782" data-name="長方形 5782" class="cls-39" d="M1144.99 210.33h28.24v28.24h-28.24z"/><path id="_長方形_5783" data-name="長方形 5783" class="cls-38" d="M1144.99 182.09h28.24v28.24h-28.24z"/><path id="_長方形_5784" data-name="長方形 5784" class="cls-39" d="M1144.99 153.85h28.24v28.24h-28.24z"/><path id="_長方形_5785" data-name="長方形 5785" class="cls-38" d="M1144.99 125.61h28.24v28.24h-28.24z"/><path id="_長方形_5786" data-name="長方形 5786" class="cls-39" d="M1144.99 97.37h28.24v28.24h-28.24z"/><path id="_長方形_5787" data-name="長方形 5787" class="cls-38" d="M1144.99 69.13h28.24v28.24h-28.24z"/><path id="_長方形_5788" data-name="長方形 5788" class="cls-39" d="M1144.99 40.89h28.24v28.24h-28.24z"/><path id="_長方形_5789" data-name="長方形 5789" class="cls-38" d="M1144.99 12.65h28.24v28.24h-28.24z"/><path id="_長方形_5790" data-name="長方形 5790" class="cls-39" d="M1144.99-.61h28.24v13.26h-28.24z"/><g clip-path="url(#clippath-16)" id="_グループ_4333" data-name="グループ 4333"><g id="_グループ_4332" data-name="グループ 4332"><path id="_長方形_5791" data-name="長方形 5791" class="cls-38" d="M1173.23 379.77h28.24v28.24h-28.24z"/></g></g><path id="_長方形_5793" data-name="長方形 5793" class="cls-39" d="M1173.23 351.53h28.24v27.91h-28.24z"/><path id="_長方形_5794" data-name="長方形 5794" class="cls-38" d="M1173.23 323.29h28.24v28.24h-28.24z"/><path id="_長方形_5795" data-name="長方形 5795" class="cls-39" d="M1173.23 295.05h28.24v28.24h-28.24z"/><path id="_長方形_5796" data-name="長方形 5796" class="cls-38" d="M1173.23 266.81h28.24v28.24h-28.24z"/><path id="_長方形_5797" data-name="長方形 5797" class="cls-39" d="M1173.23 238.57h28.24v28.24h-28.24z"/><path id="_長方形_5798" data-name="長方形 5798" class="cls-38" d="M1173.23 210.33h28.24v28.24h-28.24z"/><path id="_長方形_5799" data-name="長方形 5799" class="cls-39" d="M1173.23 182.09h28.24v28.24h-28.24z"/><path id="_長方形_5800" data-name="長方形 5800" class="cls-38" d="M1173.23 153.85h28.24v28.24h-28.24z"/><path id="_長方形_5801" data-name="長方形 5801" class="cls-39" d="M1173.23 125.61h28.24v28.24h-28.24z"/><path id="_長方形_5802" data-name="長方形 5802" class="cls-38" d="M1173.23 97.37h28.24v28.24h-28.24z"/><path id="_長方形_5803" data-name="長方形 5803" class="cls-39" d="M1173.23 69.13h28.24v28.24h-28.24z"/><path id="_長方形_5804" data-name="長方形 5804" class="cls-38" d="M1173.23 40.89h28.24v28.24h-28.24z"/><path id="_長方形_5805" data-name="長方形 5805" class="cls-39" d="M1173.23 12.65h28.24v28.24h-28.24z"/><path id="_長方形_5806" data-name="長方形 5806" class="cls-38" d="M1173.23-.61h28.24v13.26h-28.24z"/><g clip-path="url(#clippath-17)" id="_グループ_4335" data-name="グループ 4335"><g id="_グループ_4334" data-name="グループ 4334"><path id="_長方形_5807" data-name="長方形 5807" class="cls-39" d="M1201.47 379.77h28.24v28.24h-28.24z"/></g></g><path id="_長方形_5809" data-name="長方形 5809" class="cls-38" d="M1201.47 351.53h28.24v27.91h-28.24z"/><path id="_長方形_5810" data-name="長方形 5810" class="cls-39" d="M1201.47 323.29h28.24v28.24h-28.24z"/><path id="_長方形_5811" data-name="長方形 5811" class="cls-38" d="M1201.47 295.05h28.24v28.24h-28.24z"/><path id="_長方形_5812" data-name="長方形 5812" class="cls-39" d="M1201.47 266.81h28.24v28.24h-28.24z"/><path id="_長方形_5813" data-name="長方形 5813" class="cls-38" d="M1201.47 238.57h28.24v28.24h-28.24z"/><path id="_長方形_5814" data-name="長方形 5814" class="cls-39" d="M1201.47 210.33h28.24v28.24h-28.24z"/><path id="_長方形_5815" data-name="長方形 5815" class="cls-38" d="M1201.47 182.09h28.24v28.24h-28.24z"/><path id="_長方形_5816" data-name="長方形 5816" class="cls-39" d="M1201.47 153.85h28.24v28.24h-28.24z"/><path id="_長方形_5817" data-name="長方形 5817" class="cls-38" d="M1201.47 125.61h28.24v28.24h-28.24z"/><path id="_長方形_5818" data-name="長方形 5818" class="cls-39" d="M1201.47 97.37h28.24v28.24h-28.24z"/><path id="_長方形_5819" data-name="長方形 5819" class="cls-38" d="M1201.47 69.13h28.24v28.24h-28.24z"/><path id="_長方形_5820" data-name="長方形 5820" class="cls-39" d="M1201.47 40.89h28.24v28.24h-28.24z"/><path id="_長方形_5821" data-name="長方形 5821" class="cls-38" d="M1201.47 12.65h28.24v28.24h-28.24z"/><path id="_長方形_5822" data-name="長方形 5822" class="cls-39" d="M1201.47-.61h28.24v13.26h-28.24z"/><g clip-path="url(#clippath-18)" id="_グループ_4337" data-name="グループ 4337"><g id="_グループ_4336" data-name="グループ 4336"><path id="_長方形_5823" data-name="長方形 5823" class="cls-38" d="M1229.71 379.77h28.24v28.24h-28.24z"/></g></g><path id="_長方形_5825" data-name="長方形 5825" class="cls-39" d="M1229.71 351.53h28.24v27.91h-28.24z"/><path id="_長方形_5826" data-name="長方形 5826" class="cls-38" d="M1229.71 323.29h28.24v28.24h-28.24z"/><path id="_長方形_5827" data-name="長方形 5827" class="cls-39" d="M1229.71 295.05h28.24v28.24h-28.24z"/><path id="_長方形_5828" data-name="長方形 5828" class="cls-38" d="M1229.71 266.81h28.24v28.24h-28.24z"/><path id="_長方形_5829" data-name="長方形 5829" class="cls-39" d="M1229.71 238.57h28.24v28.24h-28.24z"/><path id="_長方形_5830" data-name="長方形 5830" class="cls-38" d="M1229.71 210.33h28.24v28.24h-28.24z"/><path id="_長方形_5831" data-name="長方形 5831" class="cls-39" d="M1229.71 182.09h28.24v28.24h-28.24z"/><path id="_長方形_5832" data-name="長方形 5832" class="cls-38" d="M1229.71 153.85h28.24v28.24h-28.24z"/><path id="_長方形_5833" data-name="長方形 5833" class="cls-39" d="M1229.71 125.61h28.24v28.24h-28.24z"/><path id="_長方形_5834" data-name="長方形 5834" class="cls-38" d="M1229.71 97.37h28.24v28.24h-28.24z"/><path id="_長方形_5835" data-name="長方形 5835" class="cls-39" d="M1229.71 69.13h28.24v28.24h-28.24z"/><path id="_長方形_5836" data-name="長方形 5836" class="cls-38" d="M1229.71 40.89h28.24v28.24h-28.24z"/><path id="_長方形_5837" data-name="長方形 5837" class="cls-39" d="M1229.71 12.65h28.24v28.24h-28.24z"/><path id="_長方形_5838" data-name="長方形 5838" class="cls-38" d="M1229.71-.61h28.24v13.26h-28.24z"/><g clip-path="url(#clippath-19)" id="_グループ_4339" data-name="グループ 4339"><g id="_グループ_4338" data-name="グループ 4338"><path id="_長方形_5839" data-name="長方形 5839" class="cls-39" d="M1257.95 379.77h28.24v28.24h-28.24z"/></g></g><path id="_長方形_5841" data-name="長方形 5841" class="cls-38" d="M1257.95 351.53h28.24v27.91h-28.24z"/><path id="_長方形_5842" data-name="長方形 5842" class="cls-39" d="M1257.95 323.29h28.24v28.24h-28.24z"/><path id="_長方形_5843" data-name="長方形 5843" class="cls-38" d="M1257.95 295.05h28.24v28.24h-28.24z"/><path id="_長方形_5844" data-name="長方形 5844" class="cls-39" d="M1257.95 266.81h28.24v28.24h-28.24z"/><path id="_長方形_5845" data-name="長方形 5845" class="cls-38" d="M1257.95 238.57h28.24v28.24h-28.24z"/><path id="_長方形_5846" data-name="長方形 5846" class="cls-39" d="M1257.95 210.33h28.24v28.24h-28.24z"/><path id="_長方形_5847" data-name="長方形 5847" class="cls-38" d="M1257.95 182.09h28.24v28.24h-28.24z"/><path id="_長方形_5848" data-name="長方形 5848" class="cls-39" d="M1257.95 153.85h28.24v28.24h-28.24z"/><path id="_長方形_5849" data-name="長方形 5849" class="cls-38" d="M1257.95 125.61h28.24v28.24h-28.24z"/><path id="_長方形_5850" data-name="長方形 5850" class="cls-39" d="M1257.95 97.37h28.24v28.24h-28.24z"/><path id="_長方形_5851" data-name="長方形 5851" class="cls-38" d="M1257.95 69.13h28.24v28.24h-28.24z"/><path id="_長方形_5852" data-name="長方形 5852" class="cls-39" d="M1257.95 40.89h28.24v28.24h-28.24z"/><path id="_長方形_5853" data-name="長方形 5853" class="cls-38" d="M1257.95 12.65h28.24v28.24h-28.24z"/><path id="_長方形_5854" data-name="長方形 5854" class="cls-39" d="M1257.95-.61h28.24v13.26h-28.24z"/><g clip-path="url(#clippath-20)" id="_グループ_4341" data-name="グループ 4341"><g id="_グループ_4340" data-name="グループ 4340"><path id="_長方形_5855" data-name="長方形 5855" class="cls-38" d="M1286.19 379.77h28.24v28.24h-28.24z"/></g></g><path id="_長方形_5857" data-name="長方形 5857" class="cls-39" d="M1286.19 351.53h28.24v27.91h-28.24z"/><path id="_長方形_5858" data-name="長方形 5858" class="cls-38" d="M1286.19 323.29h28.24v28.24h-28.24z"/><path id="_長方形_5859" data-name="長方形 5859" class="cls-39" d="M1286.19 295.05h28.24v28.24h-28.24z"/><path id="_長方形_5860" data-name="長方形 5860" class="cls-38" d="M1286.19 266.81h28.24v28.24h-28.24z"/><path id="_長方形_5861" data-name="長方形 5861" class="cls-39" d="M1286.19 238.57h28.24v28.24h-28.24z"/><path id="_長方形_5862" data-name="長方形 5862" class="cls-38" d="M1286.19 210.33h28.24v28.24h-28.24z"/><path id="_長方形_5863" data-name="長方形 5863" class="cls-39" d="M1286.19 182.09h28.24v28.24h-28.24z"/><path id="_長方形_5864" data-name="長方形 5864" class="cls-38" d="M1286.19 153.85h28.24v28.24h-28.24z"/><path id="_長方形_5865" data-name="長方形 5865" class="cls-39" d="M1286.19 125.61h28.24v28.24h-28.24z"/><path id="_長方形_5866" data-name="長方形 5866" class="cls-38" d="M1286.19 97.37h28.24v28.24h-28.24z"/><path id="_長方形_5867" data-name="長方形 5867" class="cls-39" d="M1286.19 69.13h28.24v28.24h-28.24z"/><path id="_長方形_5868" data-name="長方形 5868" class="cls-38" d="M1286.19 40.89h28.24v28.24h-28.24z"/><path id="_長方形_5869" data-name="長方形 5869" class="cls-39" d="M1286.19 12.65h28.24v28.24h-28.24z"/><path id="_長方形_5870" data-name="長方形 5870" class="cls-38" d="M1286.19-.61h28.24v13.26h-28.24z"/><g clip-path="url(#clippath-21)" id="_グループ_4343" data-name="グループ 4343"><g id="_グループ_4342" data-name="グループ 4342"><path id="_長方形_5871" data-name="長方形 5871" class="cls-39" d="M1314.43 379.77h28.24v28.24h-28.24z"/></g></g><path id="_長方形_5873" data-name="長方形 5873" class="cls-38" d="M1314.43 351.53h28.24v27.91h-28.24z"/><path id="_長方形_5874" data-name="長方形 5874" class="cls-39" d="M1314.43 323.29h28.24v28.24h-28.24z"/><path id="_長方形_5875" data-name="長方形 5875" class="cls-38" d="M1314.43 295.05h28.24v28.24h-28.24z"/><path id="_長方形_5876" data-name="長方形 5876" class="cls-39" d="M1314.43 266.81h28.24v28.24h-28.24z"/><path id="_長方形_5877" data-name="長方形 5877" class="cls-38" d="M1314.43 238.57h28.24v28.24h-28.24z"/><path id="_長方形_5878" data-name="長方形 5878" class="cls-39" d="M1314.43 210.33h28.24v28.24h-28.24z"/><path id="_長方形_5879" data-name="長方形 5879" class="cls-38" d="M1314.43 182.09h28.24v28.24h-28.24z"/><path id="_長方形_5880" data-name="長方形 5880" class="cls-39" d="M1314.43 153.85h28.24v28.24h-28.24z"/><path id="_長方形_5881" data-name="長方形 5881" class="cls-38" d="M1314.43 125.61h28.24v28.24h-28.24z"/><path id="_長方形_5882" data-name="長方形 5882" class="cls-39" d="M1314.43 97.37h28.24v28.24h-28.24z"/><path id="_長方形_5883" data-name="長方形 5883" class="cls-38" d="M1314.43 69.13h28.24v28.24h-28.24z"/><path id="_長方形_5884" data-name="長方形 5884" class="cls-39" d="M1314.43 40.89h28.24v28.24h-28.24z"/><path id="_長方形_5885" data-name="長方形 5885" class="cls-38" d="M1314.43 12.65h28.24v28.24h-28.24z"/><path id="_長方形_5886" data-name="長方形 5886" class="cls-39" d="M1314.43-.61h28.24v13.26h-28.24z"/><g clip-path="url(#clippath-22)" id="_グループ_4345" data-name="グループ 4345"><g id="_グループ_4344" data-name="グループ 4344"><path id="_長方形_5887" data-name="長方形 5887" class="cls-38" d="M1342.67 379.77h28.24v28.24h-28.24z"/></g></g><path id="_長方形_5889" data-name="長方形 5889" class="cls-39" d="M1342.67 351.53h28.24v27.91h-28.24z"/><path id="_長方形_5890" data-name="長方形 5890" class="cls-38" d="M1342.67 323.29h28.24v28.24h-28.24z"/><path id="_長方形_5891" data-name="長方形 5891" class="cls-39" d="M1342.67 295.05h28.24v28.24h-28.24z"/><path id="_長方形_5892" data-name="長方形 5892" class="cls-38" d="M1342.67 266.81h28.24v28.24h-28.24z"/><path id="_長方形_5893" data-name="長方形 5893" class="cls-39" d="M1342.67 238.57h28.24v28.24h-28.24z"/><path id="_長方形_5894" data-name="長方形 5894" class="cls-38" d="M1342.67 210.33h28.24v28.24h-28.24z"/><path id="_長方形_5895" data-name="長方形 5895" class="cls-39" d="M1342.67 182.09h28.24v28.24h-28.24z"/><path id="_長方形_5896" data-name="長方形 5896" class="cls-38" d="M1342.67 153.85h28.24v28.24h-28.24z"/><path id="_長方形_5897" data-name="長方形 5897" class="cls-39" d="M1342.67 125.61h28.24v28.24h-28.24z"/><path id="_長方形_5898" data-name="長方形 5898" class="cls-38" d="M1342.67 97.37h28.24v28.24h-28.24z"/><path id="_長方形_5899" data-name="長方形 5899" class="cls-39" d="M1342.67 69.13h28.24v28.24h-28.24z"/><path id="_長方形_5900" data-name="長方形 5900" class="cls-38" d="M1342.67 40.89h28.24v28.24h-28.24z"/><path id="_長方形_5901" data-name="長方形 5901" class="cls-39" d="M1342.67 12.65h28.24v28.24h-28.24z"/><path id="_長方形_5902" data-name="長方形 5902" class="cls-38" d="M1342.67-.61h28.24v13.26h-28.24z"/><g clip-path="url(#clippath-23)" id="_グループ_4347" data-name="グループ 4347"><g id="_グループ_4346" data-name="グループ 4346"><path id="_長方形_5903" data-name="長方形 5903" class="cls-39" d="M1370.91 379.77h28.24v28.24h-28.24z"/></g></g><path id="_長方形_5905" data-name="長方形 5905" class="cls-38" d="M1370.91 351.53h26.38v27.91h-26.38z"/><path id="_長方形_5906" data-name="長方形 5906" class="cls-39" d="M1370.91 323.29h26.38v28.24h-26.38z"/><path id="_長方形_5907" data-name="長方形 5907" class="cls-38" d="M1370.91 295.05h26.38v28.24h-26.38z"/><path id="_長方形_5908" data-name="長方形 5908" class="cls-39" d="M1370.91 266.81h26.38v28.24h-26.38z"/><path id="_長方形_5909" data-name="長方形 5909" class="cls-38" d="M1370.91 238.57h26.38v28.24h-26.38z"/><path id="_長方形_5910" data-name="長方形 5910" class="cls-39" d="M1370.91 210.33h26.38v28.24h-26.38z"/><path id="_長方形_5911" data-name="長方形 5911" class="cls-38" d="M1370.91 182.09h26.38v28.24h-26.38z"/><path id="_長方形_5912" data-name="長方形 5912" class="cls-39" d="M1370.91 153.85h26.38v28.24h-26.38z"/><path id="_長方形_5913" data-name="長方形 5913" class="cls-38" d="M1370.91 125.61h26.38v28.24h-26.38z"/><path id="_長方形_5914" data-name="長方形 5914" class="cls-39" d="M1370.91 97.37h26.38v28.24h-26.38z"/><path id="_長方形_5915" data-name="長方形 5915" class="cls-38" d="M1370.91 69.13h26.38v28.24h-26.38z"/><path id="_長方形_5916" data-name="長方形 5916" class="cls-39" d="M1370.91 40.89h26.38v28.24h-26.38z"/><path id="_長方形_5917" data-name="長方形 5917" class="cls-38" d="M1370.91 12.65h26.38v28.24h-26.38z"/><path id="_長方形_5918" data-name="長方形 5918" class="cls-39" d="M1370.91-.61h26.38v13.26h-26.38z"/><path id="_パス_32388" data-name="パス 32388" class="cls-38" d="M-2.62 184.55v2.28h5.24v-5.3l-5.24 3.03z"/><path id="_パス_32389" data-name="パス 32389" class="cls-38" d="M-2.62 147.94v30.51l5.24 3.02v-36.55l-5.24 3.02z"/><path id="_パス_32390" data-name="パス 32390" class="cls-38" d="M-2.62 111.33v30.51l5.24 3.02v-36.55l-5.24 3.02z"/><path id="_パス_32391" data-name="パス 32391" class="cls-38" d="M-2.62 74.73v30.51l5.24 3.02V71.71l-5.24 3.02z"/><path id="_パス_32392" data-name="パス 32392" class="cls-38" d="M-2.62 38.12v30.51l5.24 3.02V35.1l-5.24 3.02z"/><path id="_パス_32393" data-name="パス 32393" class="cls-38" d="M1.05-.61l-3.67 2.12v30.51l5.24 3.02V-.61H1.05z"/><path id="_パス_32394" data-name="パス 32394" class="cls-38" d="M2.35 181.48l9.26 5.35H34V163.2L2.34 181.48z"/><path id="_パス_32395" data-name="パス 32395" class="cls-38" d="M2.35 144.87l31.66 18.28V126.6L2.35 144.88z"/><path id="_パス_32396" data-name="パス 32396" class="cls-38" d="M2.35 108.26l31.66 18.28V89.99L2.35 108.26z"/><path id="_パス_32397" data-name="パス 32397" class="cls-38" d="M2.35 71.65l31.66 18.28V53.38L2.35 71.65z"/><path id="_パス_32398" data-name="パス 32398" class="cls-38" d="M2.35 35.04l31.66 18.28V16.77L2.35 35.04z"/><path id="_パス_32399" data-name="パス 32399" class="cls-38" d="M4.01-.61l30 17.32V-.61h-30z"/><path id="_パス_32400" data-name="パス 32400" class="cls-38" d="M57.79 186.83h9.18v-5.3l-9.18 5.3z"/><path id="_パス_32401" data-name="パス 32401" class="cls-38" d="M35.32 163.2l31.66 18.28v-36.55l-31.66 18.28z"/><path id="_パス_32402" data-name="パス 32402" class="cls-38" d="M35.32 126.59l31.66 18.28v-36.55L35.32 126.6z"/><path id="_パス_32403" data-name="パス 32403" class="cls-38" d="M35.32 89.98l31.66 18.28V71.71L35.32 89.99z"/><path id="_パス_32404" data-name="パス 32404" class="cls-38" d="M35.32 53.37l31.66 18.28V35.1L35.32 53.38z"/><path id="_パス_32405" data-name="パス 32405" class="cls-38" d="M65.4-.61L35.31 16.76l31.66 18.28V-.61H65.4z"/><path id="_パス_32406" data-name="パス 32406" class="cls-38" d="M66.71 181.48l9.27 5.35h22.39V163.2l-31.66 18.28z"/><path id="_パス_32407" data-name="パス 32407" class="cls-38" d="M66.71 144.87l31.66 18.28V126.6l-31.66 18.28z"/><path id="_パス_32408" data-name="パス 32408" class="cls-38" d="M66.71 108.26l31.66 18.28V89.99l-31.66 18.28z"/><path id="_パス_32409" data-name="パス 32409" class="cls-38" d="M66.71 71.65l31.66 18.28V53.38L66.71 71.66z"/><path id="_パス_32410" data-name="パス 32410" class="cls-38" d="M66.71 35.04l31.66 18.28V16.77L66.71 35.05z"/><path id="_パス_32411" data-name="パス 32411" class="cls-38" d="M68.36-.61l30 17.32V-.61h-30z"/><path id="_パス_32412" data-name="パス 32412" class="cls-38" d="M122.15 186.83h9.18v-5.3l-9.18 5.3z"/><path id="_パス_32413" data-name="パス 32413" class="cls-38" d="M99.67 163.2l31.66 18.28v-36.55l-31.66 18.28z"/><path id="_パス_32414" data-name="パス 32414" class="cls-38" d="M99.67 126.59l31.66 18.28v-36.55L99.67 126.6z"/><path id="_パス_32415" data-name="パス 32415" class="cls-38" d="M99.67 89.98l31.66 18.28V71.71L99.67 89.99z"/><path id="_パス_32416" data-name="パス 32416" class="cls-38" d="M99.67 53.37l31.66 18.28V35.1L99.67 53.38z"/><path id="_パス_32417" data-name="パス 32417" class="cls-38" d="M129.76-.61L99.67 16.76l31.66 18.28V-.61h-1.57z"/><path id="_パス_32418" data-name="パス 32418" class="cls-38" d="M131.06 181.48l9.26 5.35h22.39V163.2l-31.66 18.28z"/><path id="_パス_32419" data-name="パス 32419" class="cls-38" d="M131.06 144.87l31.66 18.28V126.6l-31.66 18.28z"/><path id="_パス_32420" data-name="パス 32420" class="cls-38" d="M131.06 108.26l31.66 18.28V89.99l-31.66 18.28z"/><path id="_パス_32421" data-name="パス 32421" class="cls-38" d="M131.06 71.65l31.66 18.28V53.38l-31.66 18.28z"/><path id="_パス_32422" data-name="パス 32422" class="cls-38" d="M131.06 35.04l31.66 18.28V16.77l-31.66 18.28z"/><path id="_パス_32423" data-name="パス 32423" class="cls-38" d="M132.72-.61l30 17.32V-.61h-30z"/><path id="_パス_32424" data-name="パス 32424" class="cls-38" d="M186.5 186.83h9.18v-5.3l-9.18 5.3z"/><path id="_パス_32425" data-name="パス 32425" class="cls-38" d="M164.02 163.2l31.66 18.28v-36.55l-31.66 18.28z"/><path id="_パス_32426" data-name="パス 32426" class="cls-38" d="M164.02 126.59l31.66 18.28v-36.55l-31.66 18.28z"/><path id="_パス_32427" data-name="パス 32427" class="cls-38" d="M164.02 89.98l31.66 18.28V71.71l-31.66 18.28z"/><path id="_パス_32428" data-name="パス 32428" class="cls-38" d="M164.02 53.37l31.66 18.28V35.1l-31.66 18.28z"/><path id="_パス_32429" data-name="パス 32429" class="cls-38" d="M194.11-.61l-30.09 17.37 31.66 18.28V-.61h-1.57z"/><path id="_パス_32430" data-name="パス 32430" class="cls-38" d="M195.41 181.48l9.27 5.35h22.39V163.2l-31.66 18.28z"/><path id="_パス_32431" data-name="パス 32431" class="cls-38" d="M195.41 144.87l31.66 18.28V126.6l-31.66 18.28z"/><path id="_パス_32432" data-name="パス 32432" class="cls-38" d="M195.41 108.26l31.66 18.28V89.99l-31.66 18.28z"/><path id="_パス_32433" data-name="パス 32433" class="cls-38" d="M195.41 71.65l31.66 18.28V53.38l-31.66 18.28z"/><path id="_パス_32434" data-name="パス 32434" class="cls-38" d="M195.41 35.04l31.66 18.28V16.77l-31.66 18.28z"/><path id="_パス_32435" data-name="パス 32435" class="cls-38" d="M197.07-.61l30 17.32V-.61h-30z"/><path id="_パス_32436" data-name="パス 32436" class="cls-38" d="M250.85 186.83h9.18v-5.3l-9.18 5.3z"/><path id="_パス_32437" data-name="パス 32437" class="cls-38" d="M228.37 163.2l31.66 18.28v-36.55l-31.66 18.28z"/><path id="_パス_32438" data-name="パス 32438" class="cls-38" d="M228.37 126.59l31.66 18.28v-36.55l-31.66 18.28z"/><path id="_パス_32439" data-name="パス 32439" class="cls-38" d="M228.37 89.98l31.66 18.28V71.71l-31.66 18.28z"/><path id="_パス_32440" data-name="パス 32440" class="cls-38" d="M228.37 53.37l31.66 18.28V35.1l-31.66 18.28z"/><path id="_パス_32441" data-name="パス 32441" class="cls-38" d="M258.46-.61l-30.09 17.37 31.66 18.28V-.61h-1.57z"/><path id="_パス_32442" data-name="パス 32442" class="cls-38" d="M259.77 181.48l9.26 5.35h22.39V163.2l-31.66 18.28z"/><path id="_パス_32443" data-name="パス 32443" class="cls-38" d="M259.77 144.87l31.66 18.28V126.6l-31.66 18.28z"/><path id="_パス_32444" data-name="パス 32444" class="cls-38" d="M259.77 108.26l31.66 18.28V89.99l-31.66 18.28z"/><path id="_パス_32445" data-name="パス 32445" class="cls-38" d="M259.77 71.65l31.66 18.28V53.38l-31.66 18.28z"/><path id="_パス_32446" data-name="パス 32446" class="cls-38" d="M259.77 35.04l31.66 18.28V16.77l-31.66 18.28z"/><path id="_パス_32447" data-name="パス 32447" class="cls-38" d="M261.42-.61l30 17.32V-.61h-30z"/><g clip-path="url(#clippath-24)" id="_グループ_4349" data-name="グループ 4349"><g id="_グループ_4348" data-name="グループ 4348"><path id="_パス_32448" data-name="パス 32448" class="cls-38" d="M292.73 199.8l31.66 18.28v-36.55l-31.66 18.28z"/></g></g><path id="_パス_32449" data-name="パス 32449" class="cls-38" d="M292.73 163.2l5.5 3.17v-6.34l-5.5 3.17z"/><path id="_パス_32450" data-name="パス 32450" class="cls-38" d="M292.73 126.59l5.5 3.17v-6.35l-5.5 3.17z"/><path id="_パス_32451" data-name="パス 32451" class="cls-38" d="M292.73 89.98l5.5 3.17V86.8l-5.5 3.18z"/><path id="_パス_32452" data-name="パス 32452" class="cls-38" d="M292.73 53.37l5.5 3.17v-6.35l-5.5 3.17z"/><path id="_パス_32453" data-name="パス 32453" class="cls-38" d="M292.73 16.76l5.5 3.17v-6.35l-5.5 3.17z"/><g clip-path="url(#clippath-25)" id="_グループ_4351" data-name="グループ 4351"><g id="_グループ_4350" data-name="グループ 4350"><path id="_線_393" data-name="線 393" class="cls-15" d="M589.62 420.5V64.83"/><path id="_線_394" data-name="線 394" class="cls-15" d="M597.46 420.5V64.83"/><path id="_線_395" data-name="線 395" class="cls-15" d="M605.29 420.5V64.83"/><path id="_線_396" data-name="線 396" class="cls-15" d="M613.12 420.5V64.83"/><path id="_線_397" data-name="線 397" class="cls-15" d="M620.96 420.5V64.83"/><path id="_線_398" data-name="線 398" class="cls-15" d="M628.79 420.5V64.83"/><path id="_線_399" data-name="線 399" class="cls-15" d="M636.62 420.5V64.83"/><path id="_線_400" data-name="線 400" class="cls-15" d="M644.46 420.5V64.83"/><path id="_線_401" data-name="線 401" class="cls-15" d="M652.29 420.5V64.83"/><path id="_線_402" data-name="線 402" class="cls-15" d="M660.13 420.5V64.83"/><path id="_線_403" data-name="線 403" class="cls-15" d="M667.96 420.5V64.83"/><path id="_線_404" data-name="線 404" class="cls-15" d="M675.79 420.5V64.83"/><path id="_線_405" data-name="線 405" class="cls-15" d="M683.63 420.5V64.83"/><path id="_線_406" data-name="線 406" class="cls-15" d="M691.46 420.5V64.83"/><path id="_線_407" data-name="線 407" class="cls-15" d="M699.29 420.5V64.83"/><path id="_線_408" data-name="線 408" class="cls-15" d="M707.13 420.5V64.83"/><path id="_線_409" data-name="線 409" class="cls-15" d="M714.96 420.5V64.83"/><path id="_線_410" data-name="線 410" class="cls-15" d="M722.79 420.5V64.83"/><path id="_線_411" data-name="線 411" class="cls-15" d="M730.63 420.5V64.83"/><path id="_線_412" data-name="線 412" class="cls-15" d="M738.46 420.5V64.83"/><path id="_線_413" data-name="線 413" class="cls-15" d="M746.3 420.5V64.83"/><path id="_線_414" data-name="線 414" class="cls-15" d="M754.13 420.5V64.83"/><path id="_線_415" data-name="線 415" class="cls-15" d="M761.96 420.5V64.83"/><path id="_線_416" data-name="線 416" class="cls-15" d="M769.8 420.5V64.83"/><path id="_線_417" data-name="線 417" class="cls-15" d="M777.63 420.5V64.83"/><path id="_線_418" data-name="線 418" class="cls-15" d="M785.46 420.5V64.83"/><path id="_線_419" data-name="線 419" class="cls-15" d="M793.3 420.5V64.83"/><path id="_線_420" data-name="線 420" class="cls-15" d="M801.13 420.5V64.83"/><path id="_線_421" data-name="線 421" class="cls-15" d="M808.96 420.5V64.83"/><path id="_線_422" data-name="線 422" class="cls-15" d="M816.8 420.5V64.83"/><path id="_線_423" data-name="線 423" class="cls-15" d="M824.63 420.5V64.83"/></g></g><g clip-path="url(#clippath-26)" id="_グループ_4353" data-name="グループ 4353"><g id="_グループ_4352" data-name="グループ 4352"><circle id="_楕円形_381" data-name="楕円形 381" class="cls-3" cx="723.43" cy="-440.09" r="850.75"/><circle id="_楕円形_382" data-name="楕円形 382" class="cls-3" cx="723.43" cy="-440.09" r="491.82"/><circle id="_楕円形_383" data-name="楕円形 383" cx="723.43" cy="-440.09" r="576.35" stroke-miterlimit="10" stroke-width="23.07" stroke="#004baa" fill="none"/><circle id="_楕円形_384" data-name="楕円形 384" class="cls-3" cx="723.43" cy="-440.09" r="662.73"/><circle id="_楕円形_385" data-name="楕円形 385" class="cls-3" cx="723.43" cy="-440.09" r="757.34"/></g></g><g clip-path="url(#clippath-27)" id="_グループ_4357" data-name="グループ 4357"><g id="_グループ_4356" data-name="グループ 4356"><g clip-path="url(#clippath-28)" id="_グループ_4355" data-name="グループ 4355"><g id="_グループ_4354" data-name="グループ 4354"><path id="_パス_32454" data-name="パス 32454" class="cls-2" d="M1294.82 194.66c0-18.95 18.38-18.95 18.38-37.91s-18.38-18.95-18.38-37.91 18.38-18.95 18.38-37.91-18.38-18.95-18.38-37.91 18.38-18.95 18.38-37.91-18.38-18.95-18.38-37.91 18.38-18.95 18.38-37.91-18.38-18.95-18.38-37.91 18.38-18.95 18.38-37.91-18.38-18.95-18.38-37.91 18.38-18.95 18.38-37.91-18.38-18.95-18.38-37.9 18.38-18.96 18.38-37.91-18.38-18.95-18.38-37.9 18.38-18.95 18.38-37.9-18.38-18.95-18.38-37.9 18.38-18.95 18.38-37.9-18.38-18.95-18.38-37.91 18.38-18.96 18.38-37.91-18.38-18.95-18.38-37.91 18.38-18.95 18.38-37.91-18.38-18.95-18.38-37.91 18.38-18.96 18.38-37.91-18.38-18.95-18.38-37.91 18.38-18.96 18.38-37.91-18.38-18.96-18.38-37.91 18.38-18.96 18.38-37.91-18.38-18.95-18.38-37.91 18.38-18.96 18.38-37.91-18.38-18.96-18.38-37.91 18.38-18.96 18.38-37.91-18.38-18.96-18.38-37.91 18.38-18.96 18.38-37.92-18.38-18.96-18.38-37.92"/><path id="_パス_32455" data-name="パス 32455" class="cls-2" d="M1351.21 194.66c0-18.95 18.38-18.95 18.38-37.91s-18.38-18.95-18.38-37.91 18.38-18.95 18.38-37.91-18.38-18.95-18.38-37.91 18.38-18.95 18.38-37.91-18.38-18.95-18.38-37.91 18.38-18.96 18.38-37.91-18.38-18.95-18.38-37.91 18.38-18.95 18.38-37.91-18.38-18.95-18.38-37.91 18.38-18.96 18.38-37.91-18.38-18.95-18.38-37.9 18.38-18.96 18.38-37.91-18.38-18.95-18.38-37.9 18.38-18.96 18.38-37.91-18.38-18.95-18.38-37.9 18.38-18.96 18.38-37.91-18.38-18.95-18.38-37.91 18.38-18.96 18.38-37.91-18.38-18.95-18.38-37.91 18.38-18.95 18.38-37.91-18.38-18.95-18.38-37.91 18.38-18.96 18.38-37.91-18.38-18.95-18.38-37.91 18.38-18.96 18.38-37.91-18.38-18.96-18.38-37.91 18.38-18.96 18.38-37.91-18.38-18.95-18.38-37.91 18.38-18.96 18.38-37.91-18.38-18.96-18.38-37.91 18.38-18.96 18.38-37.91-18.38-18.96-18.38-37.91 18.38-18.96 18.38-37.92-18.38-18.96-18.38-37.92"/></g></g></g></g><path id="_パス_32458" data-name="パス 32458" class="cls-38" d="M94.13 857.39v9.33l76.11 43.94v-97.22l-76.11 43.94z"/><path id="_パス_32458-2" data-name="パス 32458" class="cls-38" d="M94.13 955.56v9.33l76.11 43.94v-97.22l-76.11 43.94z"/><path id="_パス_32459" data-name="パス 32459" class="cls-38" d="M111.34 750.09l-17.21 9.93v9.33l76.11 43.94v-63.21h-58.9z"/><path id="_パス_32461" data-name="パス 32461" class="cls-38" d="M169.54 813.31l84.19 48.61V764.7l-84.19 48.61z"/><path id="_パス_32462" data-name="パス 32462" class="cls-38" d="M228.68 750.09l25.05 14.47v-14.47h-25.05z"/><path id="_パス_32464" data-name="パス 32464" class="cls-38" d="M257.2 862.06l84.19 48.61v-97.22l-84.19 48.61z"/><path id="_パス_32464-2" data-name="パス 32464" class="cls-38" d="M428.36 862.06l84.19 48.61v-97.22l-84.19 48.61z"/><path id="_パス_32461-2" data-name="パス 32461" class="cls-38" d="M169.54 910.53l84.19 48.61v-97.22l-84.19 48.61z"/><path id="_パス_32464-3" data-name="パス 32464" class="cls-38" d="M257.2 959.28l84.19 48.61v-97.22l-84.19 48.61z"/><path id="_パス_32465" data-name="パス 32465" class="cls-38" d="M282.49 750.09l-25.29 14.6 84.19 48.61v-63.21h-58.91z"/><path id="_パス_32467" data-name="パス 32467" class="cls-38" d="M340.69 813.31l84.19 48.61V764.7l-84.19 48.61z"/><path id="_パス_32467-2" data-name="パス 32467" class="cls-38" d="M341.92 911.62l84.19 48.61v-97.22l-84.19 48.61z"/><path id="_パス_32468" data-name="パス 32468" class="cls-38" d="M399.83 750.09l25.05 14.47v-14.47h-25.05z"/><g clip-path="url(#clippath-29)" id="_グループ_4359" data-name="グループ 4359"><g id="_グループ_4358" data-name="グループ 4358"><path id="_パス_32469" data-name="パス 32469" class="cls-38" d="M428.36 959.43l84.19 48.61v-97.22l-84.19 48.61z"/></g></g><path id="_パス_32472" data-name="パス 32472" class="cls-38" d="M453.65 750.09l-25.29 14.6 84.19 48.61v-63.21h-58.91z"/><path id="_パス_32474" data-name="パス 32474" class="cls-38" d="M511.85 813.31l76.74 44.31V769l-76.74 44.31z"/><path id="_パス_32474-2" data-name="パス 32474" class="cls-38" d="M511.85 906.37l76.74 44.31v-88.62l-76.74 44.31z"/><path id="_パス_32475" data-name="パス 32475" class="cls-38" d="M570.99 750.09l17.6 10.16v-10.16h-17.6z"/><g clip-path="url(#clippath-30)" id="_グループ_4361" data-name="グループ 4361"><g id="_グループ_4360" data-name="グループ 4360"><path id="_パス_32476" data-name="パス 32476" class="cls-38" d="M55.38 920.95c79.31 0 143.6 64.29 143.6 143.6s-64.29 143.6-143.6 143.6-143.6-64.29-143.6-143.6 64.29-143.6 143.6-143.6"/><path id="_パス_32477" data-name="パス 32477" class="cls-38" d="M55.38 532.39c79.31 0 143.6 64.29 143.6 143.6s-64.29 143.6-143.6 143.6-143.6-64.29-143.6-143.6c0-79.31 64.29-143.6 143.6-143.6"/><path id="_パス_32478" data-name="パス 32478" class="cls-38" d="M55.38 143.83c79.31 0 143.6 64.29 143.6 143.6s-64.29 143.6-143.6 143.6-143.6-64.29-143.6-143.6c0-79.31 64.29-143.6 143.6-143.6"/><path id="_パス_32479" data-name="パス 32479" class="cls-38" d="M410.15 726.67c79.31 0 143.6 64.29 143.6 143.6s-64.29 143.6-143.6 143.6-143.6-64.29-143.6-143.6 64.29-143.6 143.6-143.6"/><path id="_パス_32480" data-name="パス 32480" class="cls-38" d="M410.15 338.11c79.31 0 143.6 64.29 143.6 143.6s-64.29 143.6-143.6 143.6-143.6-64.29-143.6-143.6c0-79.31 64.29-143.6 143.6-143.6"/><path id="_パス_32481" data-name="パス 32481" class="cls-38" d="M410.15-50.45c79.31 0 143.6 64.29 143.6 143.6s-64.29 143.6-143.6 143.6-143.6-64.29-143.6-143.6c0-79.31 64.29-143.6 143.6-143.6"/><path id="_パス_32482" data-name="パス 32482" class="cls-38" d="M756.48 920.95c79.31 0 143.6 64.29 143.6 143.6s-64.29 143.6-143.6 143.6-143.6-64.29-143.6-143.6 64.29-143.6 143.6-143.6"/><path id="_パス_32483" data-name="パス 32483" class="cls-38" d="M756.48 532.39c79.31 0 143.6 64.29 143.6 143.6s-64.29 143.6-143.6 143.6-143.6-64.29-143.6-143.6 64.29-143.6 143.6-143.6"/><path id="_パス_32484" data-name="パス 32484" class="cls-38" d="M756.48 143.83c79.31 0 143.6 64.29 143.6 143.6s-64.29 143.6-143.6 143.6c-79.31 0-143.6-64.29-143.6-143.6s64.29-143.6 143.6-143.6"/><path id="_パス_32485" data-name="パス 32485" class="cls-38" d="M1111.26 726.67c79.31 0 143.6 64.29 143.6 143.6s-64.29 143.6-143.6 143.6-143.6-64.29-143.6-143.6 64.29-143.6 143.6-143.6"/><path id="_パス_32486" data-name="パス 32486" class="cls-38" d="M1111.26 338.11c79.31 0 143.6 64.29 143.6 143.6s-64.29 143.6-143.6 143.6c-79.31 0-143.6-64.29-143.6-143.6s64.29-143.6 143.6-143.6"/><path id="_パス_32487" data-name="パス 32487" class="cls-38" d="M1111.26-50.45c79.31 0 143.6 64.29 143.6 143.6s-64.29 143.6-143.6 143.6c-79.31 0-143.6-64.29-143.6-143.6s64.29-143.6 143.6-143.6"/></g></g></g></g></svg>