<svg data-name="グループ 1587" xmlns="http://www.w3.org/2000/svg" width="123.415" height="158.453"><defs><clipPath id="a"><path data-name="長方形 1354" fill="none" d="M0 0h123.415v158.453H0z"/></clipPath></defs><g data-name="グループ 1586" clip-path="url(#a)"><path data-name="パス 9578" d="M30.952 55.8c-16.05-12.04-17.558-31.771-13.807-40.835 7.081-18.41 35.995-21.833 44.3 1.109C71.828-13.5 124.463-1.557 106.697 46.6c-4.818 14.036-21.93 30.086-45.651 40.471 15.932-12.253 35.758-26.2 39.986-49.17 4.407-26.077-24.463-40.049-39.986-7.949 0 0-6.163-23.358-27.675-17.655-13.532 3.777-15.676 24.985-2.418 43.5" fill="#0ba4e1"/><path data-name="パス 9579" d="M95.492 29.333c-.539 7.012-12.293 15.2-12.293 15.2s-11.882-8.353-12.293-15.2c-.8-6.69 8-11.494 12.293-2.651 4.658-8.734 13.065-4.094 12.293 2.651" fill="#cf5960"/><path data-name="パス 9580" d="M84.047 57.806a5.665 5.665 0 11-5.666-5.666 5.666 5.666 0 015.666 5.666" fill="#cf5960"/><path data-name="パス 9581" d="M72.511 68.512a4.4 4.4 0 11-4.4-4.4 4.4 4.4 0 014.4 4.4" fill="#0ba4e1"/><path data-name="パス 9582" d="M19.946 102.449a.574.574 0 01-.563-.623.564.564 0 01.563-.622h6.208a.58.58 0 01.583.622.591.591 0 01-.583.623zm1.668 13.521c-1.105 0-1.567-.482-1.567-1.567v-3.536c0-1.065.462-1.547 1.567-1.547h3.174c1.1 0 1.567.482 1.567 1.547v3.541c0 1.085-.462 1.567-1.567 1.567zm-.924-10.849a.602.602 0 010-1.205h4.982a.602.602 0 010 1.205zm0 2.672a.603.603 0 010-1.206h4.982a.603.603 0 010 1.206zm.06-8.016a.574.574 0 01-.563-.623.564.564 0 01.563-.623h4.862a.58.58 0 01.582.623.591.591 0 01-.582.623zm4.339 11.11a.354.354 0 00-.382-.362h-3.033a.337.337 0 00-.362.362v3.5a.343.343 0 00.362.382h3.034a.358.358 0 00.382-.382zm5.485-4.761c-.141 3.918-.683 7.494-2.792 10.045a.857.857 0 01-.643.362.659.659 0 01-.623-.7.614.614 0 01.14-.4c2.451-3.174 2.612-7.252 2.612-11.753v-2.19h-1.507a.633.633 0 010-1.266h3.757v-1.648a.66.66 0 01.7-.643.649.649 0 01.7.643v1.648h4.48a.633.633 0 010 1.266h-6.784v3.375h3.978c1.969 0 2.712.944 2.712 2.511 0 6.61-.181 8.94-3.355 8.94a13.314 13.314 0 01-2.551-.3.61.61 0 01-.362-.643c0-.4.2-.824.6-.824a.616.616 0 01.181.02 8.781 8.781 0 002.069.362c1.989 0 2.069-1.888 2.069-7.393 0-.743-.3-1.406-1.205-1.406z" fill="#0ba4e1"/><path data-name="パス 9583" d="M41.202 99.859a1.465 1.465 0 011.547-1.346h4.641a1.493 1.493 0 011.547 1.346v4.3a1.439 1.439 0 01-1.547 1.346h-4.882v10.427a.655.655 0 01-1.306 0zm6.509.4a.494.494 0 00-.562-.542H43.07c-.382 0-.562.181-.562.542v1.125h5.2zm0 2.25h-5.2v1.788h4.641a.494.494 0 00.562-.542zm-.462 11.532c-1.547 0-2.17-.582-2.17-2.17v-2.451c0-1.587.623-2.17 2.17-2.17h5.4c1.547 0 2.17.583 2.17 2.17v2.451c0 1.587-.623 2.17-2.17 2.17zm6.248-4.621c0-.663-.281-.944-.924-.944h-5.244c-.643 0-.924.281-.924.944v2.451c0 .663.281.944.924.944h5.244c.643 0 .924-.281.924-.944zm4.038-3.918h-5.023a1.48 1.48 0 01-1.547-1.346v-4.3a1.4 1.4 0 011.547-1.346h4.8a1.582 1.582 0 011.527 1.346v14.284c0 1.667-.322 2.331-2.009 2.331a16.57 16.57 0 01-2.29-.221.707.707 0 01-.6-.744c0-.361.181-.683.5-.683.04 0 .08.02.121.02a13.255 13.255 0 001.969.261c.864 0 1-.361 1-1.206zm0-5.244c0-.362-.161-.542-.583-.542h-4.156c-.382 0-.583.181-.583.542v1.125h5.324zm0 2.25h-5.324v1.251c0 .362.2.542.583.542h4.741z" fill="#0ba4e1"/><path data-name="パス 9584" d="M80.62 104.017c0 .422-.281.884-.7.884-.462 0-4.46-1.949-8.217-5.3a.547.547 0 00-.342-.12.536.536 0 00-.361.14 21.124 21.124 0 01-8.036 5.163 1.23 1.23 0 01-.221.06.815.815 0 01-.723-.884.634.634 0 01.421-.643 19.009 19.009 0 007.695-4.922 1.6 1.6 0 011.126-.482 1.779 1.779 0 011.245.5 23.167 23.167 0 007.715 4.962.671.671 0 01.4.643m-13.079 1.748c0 4.521-.161 7.433-3.6 10.568a.726.726 0 01-.522.241.837.837 0 01-.8-.824.56.56 0 01.241-.462c3.175-2.773 3.255-5.465 3.255-10.186v-.724a.65.65 0 01.723-.623.644.644 0 01.7.623zm7.474-1.366a.72.72 0 011.427 0v11.552a.72.72 0 01-1.427 0z" fill="#0ba4e1"/><path data-name="パス 9585" d="M83.836 102.409a.602.602 0 010-1.205h5.384a.602.602 0 010 1.205zm1.667 13.561c-1.105 0-1.567-.482-1.567-1.567v-3.5c0-1.065.462-1.547 1.567-1.547h2.15a1.349 1.349 0 011.547 1.547v3.5c0 1.085-.462 1.567-1.547 1.567zm-.926-10.889a.565.565 0 01-.563-.583.553.553 0 01.563-.582h3.937a.542.542 0 01.563.582.552.552 0 01-.563.583zm0 2.672a.565.565 0 01-.563-.583.553.553 0 01.563-.582h3.937a.542.542 0 01.563.582.552.552 0 01-.563.583zm.06-8.016a.602.602 0 010-1.205h3.817a.602.602 0 010 1.205zm3.315 11.191a.348.348 0 00-.362-.362h-2.049a.337.337 0 00-.361.362v3.455a.343.343 0 00.361.382h2.049a.354.354 0 00.362-.382zm4.8-1.145c-1.547 0-2.19-.623-2.19-2.19v-2.852a5.659 5.659 0 01-.4.643.49.49 0 01-.4.221.643.643 0 01-.643-.623.669.669 0 01.158-.441 11.231 11.231 0 002.029-3.315.521.521 0 01.482-.342.639.639 0 01.643.6.694.694 0 01-.06.261c-.121.261-.221.341-.341.582h3.476a7.088 7.088 0 00.582-1.306.555.555 0 01.542-.321.547.547 0 01.6.5c0 .1-.02.241-.442 1.125h4.1a.477.477 0 110 .944h-4.211v1.105h3.757c.362 0 .542.221.542.442a.479.479 0 01-.542.462h-3.757v1.125h3.757c.362 0 .542.221.542.442a.479.479 0 01-.542.462h-3.757v1.446h4.339a.513.513 0 110 1.025zm6.268-9.523v.683a.602.602 0 01-1.205 0v-.683h-3.878v.683a.613.613 0 01-1.225 0v-.683h-2.873a.518.518 0 01-.5-.542.507.507 0 01.5-.543h2.873v-.743c0-.362.3-.522.623-.522a.539.539 0 01.6.522v.743h3.878v-.743a.609.609 0 011.205 0v.743h2.411a.5.5 0 01.5.543.505.505 0 01-.5.542zm2.09 16.294a24.957 24.957 0 01-5.163-1.246 23.684 23.684 0 01-5.906 1.246h-.06a.626.626 0 01-.643-.663.568.568 0 01.582-.623 23.465 23.465 0 004.862-.562c-3.395-1.587-3.455-1.969-3.455-2.13a.622.622 0 01.643-.562.763.763 0 01.442.141 15.47 15.47 0 003.556 2.009 15.467 15.467 0 003.576-2.049.4.4 0 00.14-.221c0-.06-.08-.121-.241-.121h-8.96a.523.523 0 010-1.045h9.4a1.122 1.122 0 011.045 1.125 1.02 1.02 0 01-.382.8 14.681 14.681 0 01-3.4 2.009 22.7 22.7 0 004.139.522.606.606 0 01.643.623.719.719 0 01-.7.743zm-5.545-13.28h-3.837v1.1h3.837zm0 2.009h-3.837v1.125h3.837zm0 2.029h-3.837v.522c0 .663.281.924.924.924h2.913z" fill="#0ba4e1"/><path data-name="パス 9586" d="M22.475 158.453v-3.782c7.216 0 11.172-2.956 11.172-8.825 0-4.564-1.782-7.608-6-9.129-5.781 15.171-12.041 20.736-18.518 20.736-6.521 0-9.129-5.086-9.129-10.694 0-6.217 4.478-11.868 12.563-13.911v-5.26H1.435v-3.608h11.128v-2.522h3.782v2.521H36.3v3.609H16.346v4.608c.913-.087 1.912-.174 2.956-.174 13.085 0 18.345 5.13 18.345 13.824 0 8.521-5.564 12.607-15.172 12.607m-3.347-22.954a22.9 22.9 0 00-3.086.218v13.65h-3.479v-12.955c-5.477 1.652-8.694 5.476-8.694 10.176 0 3.043 1.13 7.13 5.652 7.13 5.216 0 9.824-5.869 14.693-17.867a35.077 35.077 0 00-5.086-.348" fill="#0ba4e1"/><path data-name="パス 9587" d="M58.034 158.236h-9.781v-3.913h9.651c13.737 0 17.65-4.347 17.65-10.129 0-5.13-3.3-7.869-10.216-7.869a22.863 22.863 0 00-13.694 4.173l-8.738 5.956v-4.477l24.258-15.955H44.732v-3.867h29.865v3.217l-13.259 8.347a25.864 25.864 0 015.738-.7c8.216 0 12.868 4.39 12.868 11.129 0 8.216-5.869 14.085-21.91 14.085" fill="#0ba4e1"/><path data-name="パス 9588" d="M87.898 158.192a126.408 126.408 0 01-1.084-16.646c0-6.651.435-12.737 1.044-19.867h4a173.214 173.214 0 00-1 20.258 111.718 111.718 0 001.131 16.259zm30.778-10.521v.087c0 6.955-3.869 10.52-11.824 10.52-7 0-10.825-3.261-10.825-8.651 0-5.13 4.043-8.564 10.868-8.564a33.382 33.382 0 017.955 1.087v-12.304H96.375v-3.869h18.476v-4.431h3.826v4.434h4.26v3.866h-4.26v13.52a33.844 33.844 0 014.739 2.087v4.956a35.768 35.768 0 00-4.739-2.739m-3.826-1.565a26.785 26.785 0 00-8.173-1.391c-4.043 0-6.782 1.565-6.782 5 0 3.3 2.826 4.738 6.651 4.738 5.608 0 8.3-2.13 8.3-7.433z" fill="#0ba4e1"/></g></svg>